<?xml version="1.0" encoding="utf-8"?>
<!-- Generator: Adobe Illustrator 26.3.1, SVG Export Plug-In . SVG Version: 6.00 Build 0)  -->
<svg version="1.1" xmlns="http://www.w3.org/2000/svg" xmlns:xlink="http://www.w3.org/1999/xlink" x="0px" y="0px"
	 viewBox="0 0 1440 3800" style="enable-background:new 0 0 1440 3800;" xml:space="preserve">
<style type="text/css">
	.st0{fill:none;stroke:#FDE1BD;stroke-width:6;stroke-miterlimit:10;}
	.st1{fill:#1D150B;stroke:#FDE1BD;stroke-width:6;stroke-miterlimit:10;}
	.st2{fill:#6D5B9D;}
	.st3{clip-path:url(#SVGID_00000128452730250378962350000007276238418574187163_);}
	.st4{opacity:0.5;fill:url(#SVGID_00000065774249252644376010000015993104924314526880_);enable-background:new    ;}
	.st5{opacity:0.5;}
	.st6{fill:url(#SVGID_00000022518890382069929980000012141184788072750520_);}
	.st7{fill:url(#SVGID_00000149350599048526955960000011787139932216206983_);}
	.st8{fill:url(#SVGID_00000115476291080768521140000004968673194283023236_);}
	.st9{fill:url(#SVGID_00000163063410165736899100000010024765866252645516_);}
	.st10{fill:url(#SVGID_00000031168943620322532190000017782674389639103362_);}
	.st11{clip-path:url(#SVGID_00000117656057942036243410000007110956949845053583_);}
	.st12{fill:url(#SVGID_00000055683955400067462140000007653118566319958680_);}
	.st13{clip-path:url(#SVGID_00000046320818453277446380000016431006334305938877_);}
	.st14{fill:url(#SVGID_00000155844675821140433950000011567900328868280739_);}
	.st15{clip-path:url(#SVGID_00000000218237759253562340000005104922397108356015_);}
	.st16{fill:#633B7D;}
	.st17{fill:url(#SVGID_00000103981432074262425470000018078846426280535169_);}
	.st18{fill:url(#SVGID_00000073714114866397109950000013231743249382844857_);}
	.st19{display:none;}
	.st20{display:inline;fill:url(#bridge-top-2_00000005987615428186307780000009538253160664653730_);}
	.st21{display:inline;}
	.st22{clip-path:url(#SVGID_00000046317360733637964880000007208971059141050513_);}
	.st23{fill:#FF987F;}
	.st24{fill:#FDE1BD;}
	.st25{fill:#FF7177;}
	.st26{fill:#FFC95A;}
	.st27{clip-path:url(#Bridge_00000098191122249552145840000002686567966961274047_);fill:#FF9278;}
	
		.st28{clip-path:url(#Bridge_00000098191122249552145840000002686567966961274047_);fill:url(#SVGID_00000021114918175685484580000015884937234296891296_);}
	
		.st29{clip-path:url(#Bridge_00000098191122249552145840000002686567966961274047_);fill:url(#SVGID_00000143617835475661105490000004722632246443558018_);}
	
		.st30{clip-path:url(#Bridge_00000098191122249552145840000002686567966961274047_);fill:url(#SVGID_00000052099474940423681230000017509090211807763875_);}
</style>
<g id="under_bridge">
	<line class="st0" x1="620.4" y1="1152" x2="492" y2="1351.9"/>
	<line class="st0" x1="619.2" y1="1182.3" x2="514.2" y2="1348.3"/>
	<line class="st0" x1="607.4" y1="1221.4" x2="536.7" y2="1343.1"/>
	<line class="st1" x1="620.9" y1="1119.4" x2="465.1" y2="1361.2"/>
</g>
<g id="Layer_4">
	<g id="house">
		<path class="st2" d="M1099.1,1394.2c0,0-74.8-84.7-175.5-84.7c-86,0-210.7,10-210.7,10s-191-10-312.8,75.3
			C291.4,1481.5,224,1483.4,74,1733l80.4,1061.6l391.8-7.8l676.5-1212.3C1180.2,1420.4,1099.1,1394.2,1099.1,1394.2z"/>
		<g>
			<defs>
				<path id="SVGID_1_" d="M1099.1,1394.2c0,0-74.8-84.7-175.5-84.7c-86,0-210.7,10-210.7,10s-186.9-10-312.8,75.3
					C237.9,1497.6,171.9,1570.3,74,1733l80.4,1061.6l391.8-7.8l676.5-1212.3C1180.2,1420.4,1099.1,1394.2,1099.1,1394.2z"/>
			</defs>
			<clipPath id="SVGID_00000137829900760370267170000015648892943075379627_">
				<use xlink:href="#SVGID_1_"  style="overflow:visible;"/>
			</clipPath>
			<g style="clip-path:url(#SVGID_00000137829900760370267170000015648892943075379627_);">
				
					<linearGradient id="SVGID_00000090293899693413283990000012384336089769812355_" gradientUnits="userSpaceOnUse" x1="0" y1="4889.0801" x2="1453" y2="4889.0801" gradientTransform="matrix(1 0 0 -1 0 6790.8604)">
					<stop  offset="0" style="stop-color:#D65B86;stop-opacity:0.5"/>
					<stop  offset="1" style="stop-color:#482451;stop-opacity:0.3"/>
				</linearGradient>
				
					<rect y="3.6" style="opacity:0.5;fill:url(#SVGID_00000090293899693413283990000012384336089769812355_);enable-background:new    ;" width="1453" height="3796.4"/>
				<g class="st5">
					
						<radialGradient id="SVGID_00000181766328780617174010000008114225424563081352_" cx="1009.7899" cy="2598.5801" r="319.36" gradientTransform="matrix(1 0 0 -1 0 3800)" gradientUnits="userSpaceOnUse">
						<stop  offset="0" style="stop-color:#D65B86"/>
						<stop  offset="1" style="stop-color:#D65B86;stop-opacity:0"/>
					</radialGradient>
					<circle style="fill:url(#SVGID_00000181766328780617174010000008114225424563081352_);" cx="1009.8" cy="1201.4" r="319.4"/>
					
						<radialGradient id="SVGID_00000082332788150070518530000012171676897484930699_" cx="1139.79" cy="2467.5801" r="319.36" gradientTransform="matrix(1 0 0 -1 0 3800)" gradientUnits="userSpaceOnUse">
						<stop  offset="0" style="stop-color:#D65B86"/>
						<stop  offset="1" style="stop-color:#D65B86;stop-opacity:0"/>
					</radialGradient>
					<circle style="fill:url(#SVGID_00000082332788150070518530000012171676897484930699_);" cx="1139.8" cy="1332.4" r="319.4"/>
				</g>
				
					<radialGradient id="SVGID_00000003105882650099798390000015002443822826537355_" cx="548.79" cy="2507.5801" r="319.36" gradientTransform="matrix(1 0 0 -1 0 3800)" gradientUnits="userSpaceOnUse">
					<stop  offset="0" style="stop-color:#482451"/>
					<stop  offset="1" style="stop-color:#482451;stop-opacity:0"/>
				</radialGradient>
				<circle style="fill:url(#SVGID_00000003105882650099798390000015002443822826537355_);" cx="548.8" cy="1292.4" r="319.4"/>
				
					<radialGradient id="SVGID_00000007426582182857530080000005431432233097221553_" cx="769.7899" cy="2537.5801" r="319.36" gradientTransform="matrix(1 0 0 -1 0 3800)" gradientUnits="userSpaceOnUse">
					<stop  offset="0" style="stop-color:#482451"/>
					<stop  offset="1" style="stop-color:#482451;stop-opacity:0"/>
				</radialGradient>
				<circle style="fill:url(#SVGID_00000007426582182857530080000005431432233097221553_);" cx="769.8" cy="1262.4" r="319.4"/>
				
					<radialGradient id="SVGID_00000129172054739497385450000002406866492097827210_" cx="358.79" cy="2367.5801" r="319.36" gradientTransform="matrix(1 0 0 -1 0 3800)" gradientUnits="userSpaceOnUse">
					<stop  offset="0" style="stop-color:#482451"/>
					<stop  offset="1" style="stop-color:#482451;stop-opacity:0"/>
				</radialGradient>
				<circle style="fill:url(#SVGID_00000129172054739497385450000002406866492097827210_);" cx="358.8" cy="1432.4" r="319.4"/>
			</g>
		</g>
		<g>
			<defs>
				<path id="SVGID_00000126314543104087679900000001503544035610469053_" d="M-21.6,2768.6c215.1,0,743.8,9.2,880.2,9.2
					c0,0-113.2-388.2-0.6-650.8c129.9-303.1,73.9-552.7,49.3-639.3c-3-10.6-14.1-16.8-24.7-13.7c-3.8,1.1-7.2,3.3-9.8,6.3
					c-153,181.6-162.3,491.7-265,541.6c-114.8,55.8-179.8,8.2-280.2,103.7c-69.9,66.5-87.2,56.7-119.2,47.2
					c-67.6-20.2-131.4,11.9-242.3,11.9L-21.6,2768.6z"/>
			</defs>
			<clipPath id="SVGID_00000008844264851055583760000017224132659443257732_">
				<use xlink:href="#SVGID_00000126314543104087679900000001503544035610469053_"  style="overflow:visible;"/>
			</clipPath>
			<g style="clip-path:url(#SVGID_00000008844264851055583760000017224132659443257732_);">
				
					<linearGradient id="SVGID_00000133506183721800337220000010222662432414210197_" gradientUnits="userSpaceOnUse" x1="114.1" y1="1691.26" x2="1002.93" y2="1691.26" gradientTransform="matrix(1 0 0 -1 0 3800)">
					<stop  offset="0" style="stop-color:#005DA1;stop-opacity:0.5"/>
					<stop  offset="0.75" style="stop-color:#482451;stop-opacity:0.3"/>
				</linearGradient>
				
					<rect x="114.1" y="1428.3" style="fill:url(#SVGID_00000133506183721800337220000010222662432414210197_);" width="888.8" height="1361"/>
			</g>
		</g>
		<g>
			<defs>
				<path id="SVGID_00000137851896102345456600000016731241843224457652_" d="M104.7,2799.6c215.1,0,576.3-31.8,712.7-31.8
					c0,0-71.9-303.8,40.7-500.7c163.6-286.3,349.8-788.9,325.2-875.5c-4.4-15.4-69.8-4.1-150.4,18.8c-296.1,84-283,636.2-425,751.6
					c-99.1,80.6-179.8,8.2-280.2,103.7c-69.9,66.5-87.2,56.7-119.2,47.2c-67.6-20.2-19,28-130,28L104.7,2799.6z"/>
			</defs>
			<clipPath id="SVGID_00000087412769014092650760000011542454314972184745_">
				<use xlink:href="#SVGID_00000137851896102345456600000016731241843224457652_"  style="overflow:visible;"/>
			</clipPath>
			<g style="clip-path:url(#SVGID_00000087412769014092650760000011542454314972184745_);">
				
					<radialGradient id="SVGID_00000175305594059671796320000006823639233124837291_" cx="1.65" cy="1432.5701" r="705.68" gradientTransform="matrix(1 0 0 -1 0 3800)" gradientUnits="userSpaceOnUse">
					<stop  offset="0" style="stop-color:#904A85"/>
					<stop  offset="1" style="stop-color:#FF987F;stop-opacity:0"/>
				</radialGradient>
				<circle style="fill:url(#SVGID_00000175305594059671796320000006823639233124837291_);" cx="1.7" cy="2367.4" r="705.7"/>
			</g>
		</g>
		<g class="st5">
			<g>
				<defs>
					<path id="SVGID_00000160178792961131413310000011786774634477749382_" d="M467.5,1737.2c-44.2,0-52-24.2-42.5-39.7
						c12.4-20,28-37.8,46.3-52.7c8.6-7,1.2-20.8-9.4-17.3c-95.8,31.6-183.2,136.2-247,136.2c-53.8,0,18.9,40.1,5.8,71.3
						c-4.1,9.7-11.7,17.4-21.3,21.6c-65.6-16.3-48.5-24.8-131.5-24.8c0,0,68.1,203.4,151,203.4s141.3-112.7,252.5-112.7
						c81.8,0,160.4-18.7,186.7-115.4c66.8-246,113.4-334.2,174.9-381.6c9.6-7.4,0.3-22.3-10.5-16.9
						C681.9,1477.9,579.8,1737.2,467.5,1737.2z"/>
				</defs>
				<clipPath id="SVGID_00000088843538713435225200000008606461999239599517_">
					<use xlink:href="#SVGID_00000160178792961131413310000011786774634477749382_"  style="overflow:visible;"/>
				</clipPath>
				<g style="clip-path:url(#SVGID_00000088843538713435225200000008606461999239599517_);">
					<rect x="217.4" y="1364.7" class="st16" width="648.8" height="694.1"/>
					
						<radialGradient id="SVGID_00000098929299207092440030000016961913769931673763_" cx="81.15" cy="1937.39" r="521.85" gradientTransform="matrix(1 0 0 -1 0 3800)" gradientUnits="userSpaceOnUse">
						<stop  offset="0" style="stop-color:#005DA1"/>
						<stop  offset="1" style="stop-color:#005DA1;stop-opacity:0"/>
					</radialGradient>
					<circle style="fill:url(#SVGID_00000098929299207092440030000016961913769931673763_);" cx="81.2" cy="1862.6" r="521.8"/>
					
						<radialGradient id="SVGID_00000176025954446445356610000003056432394570887314_" cx="700.92" cy="2344.99" r="319.36" gradientTransform="matrix(1 0 0 -1 0 3800)" gradientUnits="userSpaceOnUse">
						<stop  offset="0" style="stop-color:#482451"/>
						<stop  offset="1" style="stop-color:#482451;stop-opacity:0"/>
					</radialGradient>
					<circle style="fill:url(#SVGID_00000176025954446445356610000003056432394570887314_);" cx="700.9" cy="1455" r="319.4"/>
				</g>
			</g>
		</g>
		<g id="bridge" class="st19">
			
				<linearGradient id="bridge-top-2_00000013160916644091367280000014320715784696295315_" gradientUnits="userSpaceOnUse" x1="729.9041" y1="2503.4744" x2="1413.384" y2="1892.6445" gradientTransform="matrix(1 0 0 -1 0 3800)">
				<stop  offset="0" style="stop-color:#FFE2BE"/>
				<stop  offset="0.57" style="stop-color:#FF987F"/>
			</linearGradient>
			
				<path id="bridge-top-2" style="display:inline;fill:url(#bridge-top-2_00000013160916644091367280000014320715784696295315_);" d="
				M1143.1,1767.3c-273.2-26.3-588.7-283.7-619.7-483.7h36.4c51.2,166.9,379.2,383,636.7,383c122.7,0,243.5-20.5,243.5-20.5v121.2
				C1440,1767.3,1247,1777.3,1143.1,1767.3z"/>
			<g class="st21">
				<defs>
					<path id="SVGID_00000070118221894545672560000002519304875213343406_" d="M1143.1,1767.3c-273.2-26.3-588.7-283.7-619.7-483.7
						h36.4c51.2,166.9,379.2,383,636.7,383c122.7,0,243.5-20.5,243.5-20.5v121.2C1440,1767.3,1247,1777.3,1143.1,1767.3z"/>
				</defs>
				<clipPath id="SVGID_00000062172741127040108170000005903347712738992786_">
					<use xlink:href="#SVGID_00000070118221894545672560000002519304875213343406_"  style="overflow:visible;"/>
				</clipPath>
				<g style="clip-path:url(#SVGID_00000062172741127040108170000005903347712738992786_);">
					<path id="bridge-shadow" class="st23" d="M1093.1,1807.3c-274.4,0-578.7-333.7-609.7-533.7h41.4c35,214.2,374.2,459,631.7,459
						L1093.1,1807.3z"/>
				</g>
			</g>
		</g>
	</g>
	<g id="Layer_2">
		<path class="st24" d="M903.2,910.7l29.3-29.3l27.6,29.3l-10.8,248.9l221.6,443.9l-38.3-6.9c0,0-163.8-362.4-167.6-370.4
			c-4.1-8.5-10.2-35.4-23.3-36.1c-10.6-0.5-17.6,19.2-23.5,34c-10.9,27.1-100.2,258.4-100.2,258.4l-38.4-28.5l120-305.2L903.2,910.7
			z"/>
		<path class="st24" d="M617.1,1054.5l11.4-12.4l13.7,12.4l-0.2,122.3l39.7,178.2l-8.1-7.5c0,0-29.8-148.3-32.1-152.4
			c-2.3-4.1-2.4-8.8-6.2-8.8s-7.9,2.3-11,9.2c-3,6.9-54.4,142.5-54.4,142.5l-18-0.4l65.9-167.4L617.1,1054.5z"/>
		<line class="st0" x1="940.3" y1="1021.4" x2="1521.1" y2="1585.4"/>
		<line class="st0" x1="940.3" y1="1061.4" x2="1490.4" y2="1613.6"/>
		<line class="st0" x1="940.3" y1="1101.4" x2="1461.1" y2="1641.4"/>
		<line class="st0" x1="940.3" y1="1141.4" x2="1415.5" y2="1682.6"/>
		<line class="st0" x1="982.5" y1="1222.2" x2="1306.7" y2="1682.6"/>
		<line class="st0" x1="638.1" y1="1112" x2="830.4" y2="1402.8"/>
		<line class="st0" x1="638.1" y1="1152" x2="814" y2="1424.5"/>
		<line class="st0" x1="638.1" y1="1192" x2="761.9" y2="1394.9"/>
		<line class="st0" x1="652.4" y1="1247.4" x2="721.1" y2="1378.3"/>
		<polygon class="st25" points="941.7,1190.1 962.5,1202 1128.5,1567.2 1086.3,1548.7 930.4,1209.8 		"/>
		<polygon class="st25" points="631,1190.5 666.9,1346.7 681.7,1354.9 639.9,1183.9 		"/>
		<path class="st26" d="M1112.5,1560l41.6,9.8l-195.8-417.3l1.7-241.9l-27.6-29.3l8.3,35.7l-5.1,233l-104.7,287.3l19.7,8
			c0,0,85.9-218.8,88.2-225.1c2.3-6.2,6.2-11.3,10-12.4c3.4-1,7.5,2.7,10.5,8.5C962.4,1222.4,1112.5,1560,1112.5,1560z"/>
		<path class="st26" d="M628.5,1042.1l3.3,12.3v118.3l-66.1,164.1l9.8,2.8c0,0,53-137.2,55.1-141.3c2.7-5.2,4.6-9.1,6.5-8.6
			c3.1,0.8,3.5,4.4,4.3,8.2c1.8,9.5,32.2,149.4,32.2,149.4l11.2,4.4l-41-179.5l-1.5-117.8L628.5,1042.1z"/>
		<g>
			<defs>
				<path id="Bridge_00000140713862860805911930000017057338436821655188_" d="M1157.9,1801.6c-206.1-249.8-471.2-419.1-625.9-464.1
					l47.4-10.8c218.4,25.9,841.5,350.2,841.5,350.2V1798C1420.9,1798,1224.3,1882,1157.9,1801.6z"/>
			</defs>
			<use xlink:href="#Bridge_00000140713862860805911930000017057338436821655188_"  style="overflow:visible;fill:#FFE1B9;"/>
			<clipPath id="Bridge_00000114790638038927669000000006197049467338930321_">
				<use xlink:href="#Bridge_00000140713862860805911930000017057338436821655188_"  style="overflow:visible;"/>
			</clipPath>
			
				<path id="Bridge_00000023983732267790986800000017939954416847889589_" style="clip-path:url(#Bridge_00000114790638038927669000000006197049467338930321_);fill:#FF9278;" d="
				M1079,1838c-274.4,0-572.4-300.5-603.5-500.6l53.5-7.3c336,114.8,566.3,357,617.5,427.7L1079,1838z"/>
			
				<radialGradient id="SVGID_00000057128972963274288590000010576807331923017644_" cx="926.4238" cy="1700.9288" r="319.3598" gradientTransform="matrix(1 0 0 1 5.8007 30.7543)" gradientUnits="userSpaceOnUse">
				<stop  offset="0" style="stop-color:#FF9278"/>
				<stop  offset="1" style="stop-color:#FF9278;stop-opacity:0"/>
			</radialGradient>
			
				<circle style="clip-path:url(#Bridge_00000114790638038927669000000006197049467338930321_);fill:url(#SVGID_00000057128972963274288590000010576807331923017644_);" cx="932.2" cy="1731.7" r="319.4"/>
			
				<radialGradient id="SVGID_00000115476558796291707320000012064167205339018169_" cx="930.4238" cy="1616.8282" r="319.3598" gradientTransform="matrix(1 0 0 1 5.8007 30.7543)" gradientUnits="userSpaceOnUse">
				<stop  offset="0" style="stop-color:#FF9278"/>
				<stop  offset="1" style="stop-color:#FF9278;stop-opacity:0"/>
			</radialGradient>
			
				<circle style="clip-path:url(#Bridge_00000114790638038927669000000006197049467338930321_);fill:url(#SVGID_00000115476558796291707320000012064167205339018169_);" cx="936.2" cy="1647.6" r="319.4"/>
			
				<radialGradient id="SVGID_00000132806457315834251030000014169416739771816107_" cx="1239.5206" cy="1718.1943" r="319.3598" gradientTransform="matrix(1 0 0 1 5.8007 30.7543)" gradientUnits="userSpaceOnUse">
				<stop  offset="0" style="stop-color:#FF9278"/>
				<stop  offset="1" style="stop-color:#FF9278;stop-opacity:0"/>
			</radialGradient>
			
				<circle style="clip-path:url(#Bridge_00000114790638038927669000000006197049467338930321_);fill:url(#SVGID_00000132806457315834251030000014169416739771816107_);" cx="1245.3" cy="1748.9" r="319.4"/>
		</g>
		<polygon class="st26" points="848.9,1387.9 818.4,1470.1 837.9,1483.4 869.6,1393.5 		"/>
		<path class="st24" d="M803,1395.3l-20.3,51.8c0,0,7.6,4.8,17.5,11.1c10.1,6.4,18.2,12,18.2,12l26.3-70.9L803,1395.3z"/>
		<line class="st0" x1="930.4" y1="1061.4" x2="647.3" y2="1369.3"/>
		<line class="st0" x1="930.4" y1="1101.4" x2="678.8" y2="1386.3"/>
		<line class="st0" x1="930.4" y1="1141.4" x2="715.2" y2="1406.3"/>
		<line class="st0" x1="888.2" y1="1222.2" x2="754.1" y2="1428.7"/>
		<line class="st0" x1="911.6" y1="1037.3" x2="611.1" y2="1353.5"/>
		<polygon class="st26" points="581.7,1297.1 563.5,1342.2 573.2,1345.7 589.7,1302.7 		"/>
	</g>
</g>
</svg>
