<svg id="Layer_4" data-name="Layer 4" xmlns="http://www.w3.org/2000/svg" xmlns:xlink="http://www.w3.org/1999/xlink" viewBox="0 0 1440 3800"><defs><style>.cls-1{fill:none;}.cls-2{fill:#005da1;}.cls-3{fill:#34396b;}.cls-4{clip-path:url(#clip-path);}.cls-5{fill:url(#linear-gradient);}.cls-6{opacity:0.5;}.cls-7{fill:url(#radial-gradient);}.cls-8{fill:url(#radial-gradient-2);}.cls-9{fill:url(#radial-gradient-3);}.cls-10{fill:url(#radial-gradient-4);}.cls-11{fill:url(#radial-gradient-5);}.cls-12{fill:url(#radial-gradient-6);}.cls-13{fill:url(#radial-gradient-7);}.cls-14{fill:url(#radial-gradient-8);}.cls-15{fill:url(#radial-gradient-9);}.cls-16{fill:url(#radial-gradient-10);}.cls-17{fill:url(#radial-gradient-11);}.cls-18{fill:url(#radial-gradient-12);}.cls-19{clip-path:url(#clip-path-2);}.cls-20{fill:url(#radial-gradient-13);}.cls-21{fill:url(#radial-gradient-15);}.cls-22{clip-path:url(#clip-path-3);}.cls-23{fill:url(#radial-gradient-16);}.cls-24{fill:url(#radial-gradient-17);}.cls-25{clip-path:url(#clip-path-4);}.cls-26{fill:url(#radial-gradient-18);}.cls-27{fill:url(#radial-gradient-19);}.cls-28{clip-path:url(#clip-path-5);}.cls-29{fill:url(#radial-gradient-20);}.cls-30{fill:url(#radial-gradient-21);}.cls-31{clip-path:url(#clip-path-6);}.cls-32{fill:url(#radial-gradient-22);}.cls-33{fill:url(#radial-gradient-23);}.cls-34{clip-path:url(#clip-path-7);}.cls-35{fill:url(#radial-gradient-24);}.cls-36{clip-path:url(#clip-path-8);}.cls-37{fill:url(#radial-gradient-25);}.cls-38{clip-path:url(#clip-path-9);}.cls-39{fill:url(#radial-gradient-26);}.cls-40{fill:url(#radial-gradient-29);}</style><clipPath id="clip-path"><path class="cls-1" d="M1440,2079.18c-23.67-8.5-42.77,31.85-42.77,31.85a30.11,30.11,0,0,0-8.84-15.59c-7.63-7.08-19.83-5.6-25.92,2.83-27.48,38.05-28.26,66.34-24.56,82.82l-1.51.54-32.65-62.94c-22.38,24.61-22.29,51-13.12,74.71-3.42,6.11-6.89,12.88-10.35,20.21l-2.19-5.26a32.85,32.85,0,0,0-22-19.4,26.75,26.75,0,0,0-5.45-.83c4.48-10.3,5.15-19.65,1.18-27.08-11.65-21.81-59.28-19.65-111.24,3.34l36.2-39.62c-7.29-6.66-31.9,7-61.43,32.59l.12-5.7a32.86,32.86,0,0,0-12.25-26.61c-25.85-20.34-45.91,28.38-45.91,28.38a30.18,30.18,0,0,0-8.84-15.59c-7.63-7.08-19.83-5.6-25.93,2.84-27.47,38-28.25,66.33-24.56,82.81l-1.51.54-32.64-62.94c-22.38,24.61-22.29,51-13.12,74.71-3.42,6.11-6.89,12.88-10.35,20.21l-2.19-5.26a32.88,32.88,0,0,0-22-19.4c-31.86-8.17-30.54,44.51-30.54,44.51a30.06,30.06,0,0,0-14.38-10.69,17.37,17.37,0,0,0-22.53,12.89,183.89,183.89,0,0,0-3.08,19.09,159.17,159.17,0,0,0-17.27,12l.68-9.79c-16.59-30.41-33.63,6-33.63,6a17.19,17.19,0,0,0-4.62-9.12,10,10,0,0,0-14.84.92c-19.93,25-17.77,43.13-15,51.29l-19-41.25c-36.86,36.86,22.58,86.16,22.58,86.16s-43.34-17.66-46.41-5.19c-4.16,16.86,54.79,36.7,58.55,38-2.74-.9-34.94-11.06-19,11,13.5,18.76,45.95,7.58,57.53,2.78a130.14,130.14,0,0,0,31.38.19,55.83,55.83,0,0,0,8,4.79,17.22,17.22,0,0,0-9.12,4.61c-.17.17-.32.36-.48.54-10.27,4.08-17.21,9.41-15.67,16.28,2.63,11.69,20.92,16.45,42.57,17.87-.31,2.53-.54,5-.72,7.37l-14.74,6.78a41.56,41.56,0,0,0,14.48,9.68c1.4,28.71,12.62,44.68,20.32,52.33l-62.1-49.86c-29,86.71,102.93,117.5,102.93,117.5s-81.83,6.24-76.89,28.21c3.8,16.88,40.26,19.32,72.33,18.09-6.25,8.16,0,25.47,0,25.47a17.17,17.17,0,0,0-9.71-3.19A10,10,0,0,0,908,2707.7c3.59,31.8,17.94,43.09,25.66,46.92L891,2738.86c0,12.22,4.22,21.17,10.69,27.73-10,16.26-10.48,28.86-9,36.73a16,16,0,0,0-1.52-1.34l-16.31-35.47c-10.13,10.13-13,21.2-11.79,31.93a97.05,97.05,0,0,0-17.37,5,30.1,30.1,0,0,0,4.77-17.27c-.39-10.4-10.06-18-20.34-16.33-46.32,7.48-66.88,26.93-75.92,41.2l-1.45-.69,21.42-67.58c-33.23,1.57-51.85,20.32-62.11,43.54-6.73,1.91-14,4.24-21.61,7l2.18-5.27a32.87,32.87,0,0,0-1.82-29.25c-16.75-28.3-53.06,9.88-53.06,9.88a30.09,30.09,0,0,0-2.61-17.73,17.39,17.39,0,0,0-25-6.82c-47.19,30.58-53.67,62-53.62,77.1l-8.65-79.17c-65.56,32.73-32.66,113.1-17,143.73a15.87,15.87,0,0,0-4.39,3.17c-18.47-14.33-54.39-39.42-63.23-25.45-5.58,8.81,1,22.67,12.2,37.26-4.54,11.1-6.43,27.62-4.86,46.21l-14.62-26.88c-4.94,2.69-2.17,18.49,6.14,39.17l-9.21-3.41a33.47,33.47,0,0,0-9.78,3.52,14.73,14.73,0,0,0-5.43-8.8c-11.42-8.27-35.29,4.72-56.19,29.48l8.67-29.35c-5.4-1.59-14.61,11.54-23.36,32l-4.1-8.92c-29.14-18.72-26.64,21.39-26.64,21.39a17.07,17.07,0,0,0-8.42-5.78,9.51,9.51,0,0,0-5.81.08c-9.69-19.67-31.18,4.67-31.18,4.67s0-.2,0-.31c7-6,10.63-12.46,9.54-18.53-1.91-10.55-10.69-5.29-27.81,1.3,20.41-14.53,31.67-31.13,26.59-41.83-3.62-7.63-14.82-10.71-29.71-9.44,13.21-12.06,19.64-24.42,15.57-33-6.05-12.73-33.23-12.79-63.45-1.09l21.69-21.59c-4-4-18.36,3.11-35.87,16.9l.69-9.8a33.47,33.47,0,0,0-6.13-8.39,14.8,14.8,0,0,0,6.92-7.69c4.73-13.28-14.46-32.54-44.09-45.64l30.6.07c0-5.63-15.18-10.78-37.31-13.41l7.41-6.44c9.77-33.23-28-19.55-28-19.55a17.07,17.07,0,0,0,3.18-9.71,9.55,9.55,0,0,0-1.71-5.55c16.16-14.83-13.25-28.61-13.25-28.61a17.15,17.15,0,0,0,9.12-4.61,10,10,0,0,0-.92-14.84c-25-19.94-43.14-17.77-51.3-15l41.26-19c-18.53-18.53-40.19-12.73-57.16-2.38-4.23-29-17.76-39.59-25.18-43.26l42.59,15.75c0-52.13-76.88-45-76.88-45s43.13-18.16,36.49-29.14c-5.2-8.61-26.17-3-43.5,3.65V3800H1440Zm-473.14,592,.61-.08c-.1.21-.19.41-.28.62l-.34.07ZM842.63,2313.86l2.29-2.28V2313C844.16,2313.28,843.4,2313.56,842.63,2313.86Z"/></clipPath><linearGradient id="linear-gradient" x1="720" y1="1765.26" x2="720" y2="3800" gradientUnits="userSpaceOnUse"><stop offset="0" stop-color="#482451" stop-opacity="0"/><stop offset="1" stop-color="#482451"/></linearGradient><radialGradient id="radial-gradient" cx="1054.49" cy="2132.84" r="653.25" gradientUnits="userSpaceOnUse"><stop offset="0" stop-color="#01c1b1"/><stop offset="0.01" stop-color="#01c1b1" stop-opacity="0.99"/><stop offset="0.2" stop-color="#01c1b1" stop-opacity="0.69"/><stop offset="0.39" stop-color="#01c1b1" stop-opacity="0.44"/><stop offset="0.57" stop-color="#01c1b1" stop-opacity="0.25"/><stop offset="0.74" stop-color="#01c1b1" stop-opacity="0.11"/><stop offset="0.89" stop-color="#01c1b1" stop-opacity="0.03"/><stop offset="1" stop-color="#01c1b1" stop-opacity="0"/></radialGradient><radialGradient id="radial-gradient-2" cx="874.49" cy="2132.84" r="653.25" xlink:href="#radial-gradient"/><radialGradient id="radial-gradient-3" cx="513.3" cy="2570.39" r="653.25" xlink:href="#radial-gradient"/><radialGradient id="radial-gradient-4" cx="1439.49" cy="2939.56" r="956.65" gradientUnits="userSpaceOnUse"><stop offset="0" stop-color="#482451"/><stop offset="0.27" stop-color="#482451" stop-opacity="0.59"/><stop offset="0.55" stop-color="#482451" stop-opacity="0.27"/><stop offset="0.81" stop-color="#482451" stop-opacity="0.07"/><stop offset="1" stop-color="#482451" stop-opacity="0"/></radialGradient><radialGradient id="radial-gradient-5" cx="1315.04" cy="3179.52" r="695.97" xlink:href="#radial-gradient-4"/><radialGradient id="radial-gradient-6" cx="1457.49" cy="2622.83" r="695.97" xlink:href="#radial-gradient-4"/><radialGradient id="radial-gradient-7" cx="1.92" cy="3064.42" r="695.97" xlink:href="#radial-gradient-4"/><radialGradient id="radial-gradient-8" cx="695.45" cy="3223.22" r="695.97" xlink:href="#radial-gradient-4"/><radialGradient id="radial-gradient-9" cx="279.15" cy="3444.33" r="695.97" xlink:href="#radial-gradient-4"/><radialGradient id="radial-gradient-10" cx="1035.35" cy="3444.33" r="695.97" xlink:href="#radial-gradient-4"/><radialGradient id="radial-gradient-11" cx="697.89" cy="3179.52" r="695.97" xlink:href="#radial-gradient-4"/><radialGradient id="radial-gradient-12" cx="1284.78" cy="2520.75" r="695.97" xlink:href="#radial-gradient-4"/><clipPath id="clip-path-2"><path class="cls-1" d="M0,2506.38c8,2,14.07,1.23,16.74-2.63,3.46-5-2.15-6.39-11.63-10.6,14,2.35,25.11.22,27.35-6.09,1.6-4.5-1.64-10.2-8.1-15.65,10.1.46,17.61-1.91,19.41-7,1.93-5.44-3.22-12.65-12.57-19a20.14,20.14,0,0,0-2.1-6.76l7,0c0-2.2-4.09-4.26-10.74-5.82-.54-.71-1.12-1.41-1.73-2.12a54.76,54.76,0,0,0,2.1-7.28,49.57,49.57,0,0,0,14-2.75l0,.05a.3.3,0,0,1,0-.08c5.44-2.08,9.21-5.24,10.71-9.47,1.87-5.24,0-11.42-4.76-17.78,3.3-5.68,5.81-14,6.88-23.64l5.16,16.51c3-.95,3.23-10,.89-22.4l1.48.91a10.71,10.71,0,0,0,9.66.89c9.56-4-.63-17.32-.63-17.32a9.78,9.78,0,0,0,5.69.09,5.65,5.65,0,0,0,3.51-7.7c-.77-1.72-1.56-3.3-2.37-4.76,7.44,4.17,14.21,5.25,19.31,2.45,7.33-4,9.72-15.31,7.59-30,12.71,12.36,25.32,18,33.56,13.45,12.25-6.74,10.7-33.64-2.67-62.85l22.65,20.18c3.71-4.17-4.17-18-18.85-34.49l9.73.09c29.12-18.22-7.92-32.93-7.92-32.93a17,17,0,0,0,8.75-5.11,9.87,9.87,0,0,0-1.78-14.63c-1.8-1.26-3.55-2.41-5.27-3.48.25-.12.51-.23.75-.37,13-7.14,17.19-27.07,13.42-53,22.49,21.86,44.8,31.82,59.38,23.8,21.66-11.93,18.91-59.53-4.73-111.19l40.07,35.7c6.56-7.37-7.38-31.81-33.35-61l17.22.17c51.5-32.23-14-58.26-14-58.26a30.1,30.1,0,0,0,15.47-9,17.47,17.47,0,0,0-3.15-25.89c-38.39-27-66.69-27.43-83.12-23.52-.33-.89-.23-.61-.56-1.51l62.53-33.42c-24.89-22.07-51.31-21.66-74.87-12.2-6.15-3.34-13-6.72-20.34-10.09l5.24-2.25a32.86,32.86,0,0,0,19.12-22.2c7.77-32-44.88-30-44.88-30A30.18,30.18,0,0,0,105.9,1780a17.37,17.37,0,0,0-13.15-22.36C37.6,1746.51,11,1764.46.51,1775.33l49.09-62.72c-19-6.1-35.8-4.53-49.6,1.64Zm56.67-186.53h.23l0,0Z"/></clipPath><radialGradient id="radial-gradient-13" cx="466.25" cy="1732.49" r="653.25" xlink:href="#radial-gradient"/><radialGradient id="radial-gradient-15" cx="-181.96" cy="2140.22" r="695.97" gradientUnits="userSpaceOnUse"><stop offset="0" stop-color="#482451"/><stop offset="0.32" stop-color="#482451" stop-opacity="0.73"/><stop offset="0.97" stop-color="#482451" stop-opacity="0.03"/><stop offset="1" stop-color="#482451" stop-opacity="0"/></radialGradient><clipPath id="clip-path-3"><path class="cls-1" d="M311.85,2779.59l-.8-20.55c-3.78.15-6.82,10.5-8,25.43l-4.53-4.8C276,2774,286.19,2799,286.19,2799a11.57,11.57,0,0,0-6.61-1.87,6.69,6.69,0,0,0-6.3,7.75c3.29,21.25,13.23,28.43,18.52,30.78l-29-9.4c1.43,35,52.86,28.07,52.86,28.07s-28.46,13.37-23.69,20.57c6.44,9.73,43.08-10.37,45.41-11.66-1.69.95-21.37,12.24-3.23,14.43,15.42,1.86,24.67-19.26,27.57-27.17a94.34,94.34,0,0,0,19-22.1c13.74-21.64,17.59-43.81,8.61-49.51-6.08-3.86-7.48,2.87-12,14.34,2.11-16.71-1-29.83-8.57-32.19-5.41-1.68-12,2.45-18.19,10.38.06-12-3.13-20.82-9.22-22.71C332.22,2745.92,319.82,2759.33,311.85,2779.59Z"/></clipPath><radialGradient id="radial-gradient-16" cx="374.47" cy="2640.16" r="318.96" xlink:href="#radial-gradient"/><radialGradient id="radial-gradient-17" cx="380.89" cy="2934.15" r="494.04" xlink:href="#radial-gradient-4"/><clipPath id="clip-path-4"><path class="cls-1" d="M1198.83,1874.52l53.61-2.42c-.44-9.86-27.49-17.62-66.48-20.4L1194,1844a19.19,19.19,0,0,0,5.74-10.84c7.93-50.26-52.06-25.27-52.06-25.27a30,30,0,0,0,4.77-17.27,17.4,17.4,0,0,0-20.2-16.35c-55.49,8.91-74.09,35-80.15,48.86l24.06-75.92c-91.32,4.33-72.38,138.43-72.38,138.43s-35.39-74.05-54.09-61.5c-25.29,17,27.78,112.28,31.19,118.34-2.51-4.4-32.29-55.58-37.72-8.2-4.61,40.28,50.68,64.06,71.37,71.5,13.91,16.74,33.88,34,58,49.14,56.7,35.5,114.62,45.2,129.35,21.66,10-15.94-7.62-19.48-37.62-31.13,43.64,5.23,77.84-3,83.88-22.89,4.29-14.17-6.6-31.38-27.41-47.31,31.37,0,54.29-8.5,59.12-24.42C1287,1927.15,1251.83,1895,1198.83,1874.52Z"/></clipPath><radialGradient id="radial-gradient-18" cx="903.85" cy="1626.07" r="653.25" xlink:href="#radial-gradient"/><radialGradient id="radial-gradient-19" cx="1267.67" cy="2408.77" r="1119.79" xlink:href="#radial-gradient-4"/><clipPath id="clip-path-5"><path class="cls-1" d="M1285.87,1506.93c-7-26.27-19.55,5.07-20.59,7.76,1.42-3.7,23.44-61.87,7.76-69.35-11.59-5.52-25.4,39.19-25.4,39.19s-.29-49-26.64-66.34a71.09,71.09,0,0,0-.08-8c-1.1-16.87-7.67-30.18-14.67-29.72-4.74.3-2.87,4.44-.83,12.31-5.37-9.72-12.12-15.52-17.08-13.82-3.54,1.22-5.46,6-5.65,12.61-4.65-6.42-9.77-9.87-13.74-8.51-5.92,2-7.31,14-3.68,27.88l-8.41-10.63c-2,1.55.45,8.24,5.64,16.64l-4.28-.79c-14.23,5.78,1,15.11,1,15.11a7.57,7.57,0,0,0-4.25,1.58,4.44,4.44,0,0,0-.32,6.6c.45.46.9.88,1.34,1.29a10,10,0,0,0-.06,2.51,17.16,17.16,0,0,0,4.13,9.35s-28.78-7.31-28.61,11a18.89,18.89,0,0,0,8.16,15.09l2.5,1.78c-21.76,4.81-36.37,11.43-35.8,17l30.44-3.09c-28.2,16-45.38,37-39.37,49.77,4,8.44,17.25,11.34,34.53,9l.26.52a59.89,59.89,0,0,0-8,10.33c-22.17-2.14-51,1.31-58.2,31.54l45.07-5.53c-8.39,2-25,9.63-35.76,39.75a10,10,0,0,0,7.1,13.11,17.27,17.27,0,0,0,10.11-.88s-16.26,24.83,1.12,30.63a18.91,18.91,0,0,0,16.93-2.81l2.5-1.79c-2.53,22.14-1,38.12,4.46,39.4l7-29.8c5.92,31.86,20.25,54.95,34.27,53.41,9.43-1,16.57-13,19.88-30.58,6.75,13.34,15.25,21.25,23.65,20.32,11.77-1.3,20-19.6,21.62-44.61,3.38,18,3.52,28.27,13.5,24.35,14.73-5.79,15.37-39.27,1.41-74.77-5.66-14.4-12.85-26.89-20.38-36.3q2.31-1.83,4.59-3.76c12.34-10.52,22.17-21.94,28.62-32.54C1262.61,1547.27,1291.82,1529.27,1285.87,1506.93Z"/></clipPath><radialGradient id="radial-gradient-20" cx="863.85" cy="1375.07" r="653.25" xlink:href="#radial-gradient"/><radialGradient id="radial-gradient-21" cx="643.85" cy="1566.07" r="653.25" xlink:href="#radial-gradient"/><clipPath id="clip-path-6"><path class="cls-1" d="M723.22,2569.25l21.68-21.59c-4-4-18.35,3.11-35.86,16.9l.21-3.07a18.9,18.9,0,0,0-6.51-15.88c-14.06-11.74-26.65,15.14-26.65,15.14a17.16,17.16,0,0,0-4.62-9.11,9.94,9.94,0,0,0-14.82.89c-19.95,25-17.79,43.16-15,51.32l-19-41.25c-36.86,36.86,22.58,86.16,22.58,86.16s-43.34-17.66-46.41-5.2c-4.16,16.87,54.79,36.71,58.55,38-2.74-.89-34.94-11.05-19.05,11,13.5,18.75,46,7.58,57.53,2.78,12.29,1.72,27.35,1.36,43.31-1.52,37.53-6.78,65.68-24.91,62.87-40.49-1.91-10.55-10.69-5.29-27.81,1.3,20.41-14.53,31.68-31.13,26.6-41.83-3.63-7.62-14.83-10.71-29.72-9.44,13.22-12,19.64-24.41,15.57-33C780.61,2557.61,753.43,2557.55,723.22,2569.25Z"/></clipPath><radialGradient id="radial-gradient-22" cx="786.43" cy="2793.01" r="653.26" xlink:href="#radial-gradient-4"/><radialGradient id="radial-gradient-23" cx="629.99" cy="2394.94" r="318.96" xlink:href="#radial-gradient"/><clipPath id="clip-path-7"><path class="cls-1" d="M1137.73,1307.54l5.73-12.29c-2.26-1.06-7.16,4.1-12.34,12.51l-1.21-4.18c-11.55-10.12-13.08,7.63-13.08,7.63a7.6,7.6,0,0,0-3.32-3.09,4.41,4.41,0,0,0-6,2.65c-4.47,13.45-.8,20.66,1.59,23.64l-14.2-14.27c-9.7,21,22.56,32.4,22.56,32.4s-20.73-.73-20.1,4.93c.84,7.65,28.4,6.9,30.16,6.84-1.28,0-16.23.74-6.25,7.5,8.49,5.74,20.28-3.87,24.37-7.64a62.07,62.07,0,0,0,17.78-7.25c14.58-8.55,23.52-20.39,20-26.45-2.4-4.1-5.25-.57-11.37,4.79,6.27-9.16,8.42-17.79,4.68-21.46-2.68-2.62-7.81-2.19-13.81.61,3.66-7,4.44-13.16,1.44-16.11C1159.84,1293.93,1148.52,1298.06,1137.73,1307.54Z"/></clipPath><radialGradient id="radial-gradient-24" cx="1050.84" cy="1224.07" r="420.14" xlink:href="#radial-gradient"/><clipPath id="clip-path-8"><path class="cls-1" d="M1306.37,1020.09,1311,1010c-1.84-.86-5.85,3.36-10.08,10.23l-1-3.41c-9.44-8.28-10.69,6.23-10.69,6.23a6.18,6.18,0,0,0-2.71-2.52,3.61,3.61,0,0,0-4.93,2.16c-3.66,11-.66,16.9,1.3,19.33l-11.61-11.66c-7.93,17.14,18.44,26.48,18.44,26.48s-16.94-.59-16.43,4c.69,6.25,23.22,5.64,24.66,5.59-1,0-13.27.61-5.11,6.13,6.94,4.69,16.58-3.17,19.92-6.25a50.68,50.68,0,0,0,14.54-5.92c11.92-7,19.23-16.68,16.33-21.63-2-3.35-4.3-.46-9.3,3.92,5.13-7.49,6.89-14.55,3.82-17.55-2.18-2.14-6.38-1.79-11.28.5,3-5.75,3.63-10.76,1.17-13.17C1324.44,1009,1315.18,1012.33,1306.37,1020.09Z"/></clipPath><radialGradient id="radial-gradient-25" cx="1303.85" cy="1004.07" r="653.25" xlink:href="#radial-gradient"/><clipPath id="clip-path-9"><path class="cls-1" d="M1440,1164.86a36.54,36.54,0,0,0-11.55,6.23,1.75,1.75,0,0,0-1.35-.56l3.42-7.34c-1.32-.62-3.74,1.36-6.55,5,1.63-4.32,1.67-7.93-.3-9.86-2.19-2.14-6.38-1.79-11.29.5,3-5.75,3.63-10.76,1.18-13.16-3.65-3.58-12.91-.2-21.72,7.55l4.68-10c-1.85-.87-5.86,3.35-10.09,10.22l-1-3.41c-3.76-3.29-6.21-3-7.81-1.4.27-10.08-3.06-20.14-15.15-25.31l-1.39,27.94c-.3-5.3-3.22-16.16-20.36-25.9a6.12,6.12,0,0,0-8.68,2.88,10.53,10.53,0,0,0-.55,6.28s-13.36-12.49-18.72-2.55a11.65,11.65,0,0,0-.08,10.57l.83,1.7c-13.18-3.87-23-4.63-24.39-1.44l17.35,7.37c-20,.24-35.49,6.5-36,15.17-.36,5.84,6.14,11.43,16.46,15.3a33.3,33.3,0,0,0-9.81,4.58c-5.63.23-13.33,7.2-19.47,17.68l1.57-13.47c-2.48-.29-5.51,6.14-7.78,15.75l-2.47-3.58c-14.14-6-10,11.35-10,11.35a7.66,7.66,0,0,0-4.12-1.89,4.41,4.41,0,0,0-4.89,4.41c0,14.18,5.73,19.87,8.94,21.94l-18-9.07c-1.66,14.59,11.55,20.18,21.4,22.33-6.59,3.81-12.25,9.87-16.18,19l45.35,2.27c-8.6.48-26.23,5.21-42,33a10,10,0,0,0,4.68,14.1,17.26,17.26,0,0,0,10.18.89s-20.27,21.68-4.14,30.37a18.93,18.93,0,0,0,17.17.14l2.76-1.34c-6.28,21.38-7.52,37.37-2.34,39.58l12-28.16c.38,32.39,10.55,57.6,24.62,58.48,9.47.59,18.55-10,24.82-26.72,4.37,14.29,11.4,23.54,19.82,24.06a13.31,13.31,0,0,0,6.91-1.53c2,3.85,4.34,8,7,12.35l-9.66-1.79c-32.09,13,2.14,34.1,2.14,34.1a17.23,17.23,0,0,0-9.58,3.55,10,10,0,0,0-.78,14.85c22.6,22.64,40.85,22.55,49.27,20.73l-43.14,14.18c8.82,11.09,19.36,15.21,30,15.34l9.89,20.31c-4.57-7.3-17.21-20.46-49.2-20.9a10,10,0,0,0-10.11,10.9,17.1,17.1,0,0,0,4.13,9.34s-39-9.88-26,22.22l8,5.68c-21.76,4.81-36.37,11.43-35.8,17l30.44-3.09c-28.2,16-45.38,37-39.37,49.77,4,8.58,17.68,11.44,35.38,8.86-10.41,10.72-15.13,21.34-11.53,29a12.77,12.77,0,0,0,.84,1.48,27.71,27.71,0,0,0-5.21-1.33,17.46,17.46,0,0,0-19.94,16.8c-1.92,56.07,20.08,79.32,32.49,87.93l-69.86-38.25c-13.36,90.44,121.88,97.72,121.88,97.72s-79.49,20.45-70.78,41.22c4.78,11.41,24.75,12.62,47.22,9.9,3.68,31.39,17.91,42.58,25.59,46.38l-42.59-15.75c0,52.13,76.89,45,76.89,45s-43.13,18.16-36.49,29.14c9,14.87,64.69-12.79,68.24-14.56-2.58,1.3-32.53,16.89-5.69,21.26,12.64,2,22.87-6.5,30.32-16.51Z"/></clipPath><radialGradient id="radial-gradient-26" cx="949.33" cy="1485.06" r="653.25" xlink:href="#radial-gradient"/><radialGradient id="radial-gradient-29" cx="1862.67" cy="1759.08" r="1119.79" xlink:href="#radial-gradient-4"/></defs><title>Artboard 2</title><g id="plants-green"><path class="cls-2" d="M1216.28,1273.43l-14.77-28.16c3.23-1.7,9.15,3.24,13.23,11S1219.51,1271.73,1216.28,1273.43Z"/><path class="cls-2" d="M1073.4,1387.48,1002.93,1374c1.54-8.08,18.57-11.62,38-7.9S1075,1379.4,1073.4,1387.48Z"/><path class="cls-2" d="M945.11,2023.64l70.48,13.45c-1.55,8.08-18.57,11.62-38,7.9S943.57,2031.72,945.11,2023.64Z"/><path class="cls-2" d="M900.42,1997.42l21.8,122.44c-14,2.5-30.29-22.89-36.31-56.7S886.39,1999.92,900.42,1997.42Z"/><path class="cls-2" d="M810.88,2139.38l110.68,25.14c-2.88,12.69-30,17.35-60.56,10.4S808,2152.07,810.88,2139.38Z"/><path class="cls-2" d="M224.18,1733.11,193.6,1798c-7.44-3.5-6.62-20.87,1.82-38.8S216.74,1729.61,224.18,1733.11Z"/><path class="cls-2" d="M141,1676.28l82.09-26.52c.69,8-17.7,21.14-36.86,27.09C162.53,1684.21,143.45,1682.35,141,1676.28Z"/><path class="cls-2" d="M1315.55,2040.3l-59.34,40.32c-4.63-6.8,4.91-21.34,21.3-32.48S1310.93,2033.49,1315.55,2040.3Z"/><path class="cls-2" d="M660.19,2465.68l-40.33-59.34c6.8-4.62,21.35,4.91,32.48,21.3S667,2461.06,660.19,2465.68Z"/><path class="cls-3" d="M399.61,2903.44l7.09-47.69c5.47.81,8.31,12.15,6.35,25.32S405.08,2904.25,399.61,2903.44Z"/><path class="cls-2" d="M129.55,2524.22,70.2,2564.54c-4.62-6.8,4.92-21.34,21.3-32.48S124.92,2517.41,129.55,2524.22Z"/><path class="cls-2" d="M191.15,2273.89l59.34-40.33c4.63,6.8-4.91,21.35-21.3,32.48S195.77,2280.69,191.15,2273.89Z"/><path class="cls-2" d="M272.89,1750.89l28.71,38.73c-4.44,3.29-14.46-2.71-22.39-13.41S268.45,1754.18,272.89,1750.89Z"/><path class="cls-2" d="M725.23,2510.44l59.34-40.33c4.62,6.81-4.91,21.35-21.3,32.48S729.85,2517.24,725.23,2510.44Z"/><path class="cls-2" d="M1276.28,1123.43l-14.77-28.16c3.23-1.7,9.15,3.24,13.23,11S1279.51,1121.73,1276.28,1123.43Z"/><path class="cls-2" d="M0,3800H1440V2079.18c-23-9.81-42.77,31.85-42.77,31.85a30.11,30.11,0,0,0-8.84-15.59c-7.63-7.08-19.83-5.6-25.92,2.83-27.48,38.05-28.26,66.34-24.56,82.82l-1.51.54-32.65-62.94c-22.38,24.61-22.29,51-13.12,74.71-3.42,6.11-6.89,12.88-10.35,20.21l-2.19-5.26a32.85,32.85,0,0,0-22-19.4,26.75,26.75,0,0,0-5.45-.83c4.48-10.3,5.15-19.65,1.18-27.08-11.65-21.81-59.28-19.65-111.24,3.34l36.2-39.62c-7.29-6.66-31.9,7-61.43,32.59l.12-5.7a32.86,32.86,0,0,0-12.25-26.61c-25.85-20.34-45.91,28.38-45.91,28.38a30.18,30.18,0,0,0-8.84-15.59c-7.63-7.08-19.83-5.6-25.93,2.84-27.47,38-28.25,66.33-24.56,82.81l-1.51.54-32.64-62.94c-22.38,24.61-22.29,51-13.12,74.71-3.42,6.11-6.89,12.88-10.35,20.21l-2.19-5.26a32.88,32.88,0,0,0-22-19.4c-31.86-8.17-30.54,44.51-30.54,44.51a30.06,30.06,0,0,0-14.38-10.69,17.37,17.37,0,0,0-22.53,12.89,183.89,183.89,0,0,0-3.08,19.09,159.17,159.17,0,0,0-17.27,12l.68-9.79c-16.59-30.41-33.63,6-33.63,6a17.19,17.19,0,0,0-4.62-9.12,10,10,0,0,0-14.84.92c-19.93,25-17.77,43.13-15,51.29l-19-41.25c-36.86,36.86,22.58,86.16,22.58,86.16s-43.34-17.66-46.41-5.19c-4.16,16.86,54.79,36.7,58.55,38-2.74-.9-34.94-11.06-19,11,13.5,18.76,45.95,7.58,57.53,2.78a130.14,130.14,0,0,0,31.38.19,55.83,55.83,0,0,0,8,4.79,17.22,17.22,0,0,0-9.12,4.61c-.17.17-.32.36-.48.54-10.27,4.08-17.21,9.41-15.67,16.28,2.63,11.69,20.92,16.45,42.57,17.87-.31,2.53-.54,5-.72,7.37l-14.74,6.78a41.56,41.56,0,0,0,14.48,9.68c1.4,28.71,12.62,44.68,20.32,52.33l-62.1-49.86c-29,86.71,102.93,117.5,102.93,117.5s-81.83,6.24-76.89,28.21c3.8,16.88,40.26,19.32,72.33,18.09-6.25,8.16,0,25.47,0,25.47a17.17,17.17,0,0,0-9.71-3.19A10,10,0,0,0,908,2707.7c3.59,31.8,17.94,43.09,25.66,46.92L891,2738.86c0,12.22,4.22,21.17,10.69,27.73-10,16.26-10.48,28.86-9,36.73a16,16,0,0,0-1.52-1.34l-16.31-35.47c-10.13,10.13-13,21.2-11.79,31.93a97.05,97.05,0,0,0-17.37,5,30.1,30.1,0,0,0,4.77-17.27c-.39-10.4-10.06-18-20.34-16.33-46.32,7.48-66.88,26.93-75.92,41.2l-1.45-.69,21.42-67.58c-33.23,1.57-51.85,20.32-62.11,43.54-6.73,1.91-14,4.24-21.61,7l2.18-5.27a32.87,32.87,0,0,0-1.82-29.25c-16.75-28.3-53.06,9.88-53.06,9.88a30.09,30.09,0,0,0-2.61-17.73,17.39,17.39,0,0,0-25-6.82c-47.19,30.58-53.67,62-53.62,77.1l-8.65-79.17c-65.56,32.73-32.66,113.1-17,143.73a15.87,15.87,0,0,0-4.39,3.17c-18.47-14.33-54.39-39.42-63.23-25.45-5.58,8.81,1,22.67,12.2,37.26-4.54,11.1-6.43,27.62-4.86,46.21l-14.62-26.88c-4.94,2.69-2.17,18.49,6.14,39.17l-9.21-3.41a33.47,33.47,0,0,0-9.78,3.52,14.73,14.73,0,0,0-5.43-8.8c-11.42-8.27-35.29,4.72-56.19,29.48l8.67-29.35c-5.4-1.59-14.61,11.54-23.36,32l-4.1-8.92c-29.14-18.72-26.64,21.39-26.64,21.39a17.07,17.07,0,0,0-8.42-5.78,9.51,9.51,0,0,0-5.81.08c-9.69-19.67-31.18,4.67-31.18,4.67s0-.2,0-.31c7-6,10.63-12.46,9.54-18.53-1.91-10.55-10.69-5.29-27.81,1.3,20.41-14.53,31.67-31.13,26.59-41.83-3.62-7.63-14.82-10.71-29.71-9.44,13.21-12.06,19.64-24.42,15.57-33-6.05-12.73-33.23-12.79-63.45-1.09l21.69-21.59c-4-4-18.36,3.11-35.87,16.9l.69-9.8a33.47,33.47,0,0,0-6.13-8.39,14.8,14.8,0,0,0,6.92-7.69c4.73-13.28-14.46-32.54-44.09-45.64l30.6.07c0-5.63-15.18-10.78-37.31-13.41l7.41-6.44c9.77-33.23-28-19.55-28-19.55a17.07,17.07,0,0,0,3.18-9.71,9.55,9.55,0,0,0-1.71-5.55c16.16-14.83-13.25-28.61-13.25-28.61a17.15,17.15,0,0,0,9.12-4.61,10,10,0,0,0-.92-14.84c-25-19.94-43.14-17.77-51.3-15l41.26-19c-18.53-18.53-40.19-12.73-57.16-2.38-4.23-29-17.76-39.59-25.18-43.26l42.59,15.75c0-52.13-76.88-45-76.88-45s43.13-18.16,36.49-29.14c-5.18-8.57-25.86-3-43.14,3.56ZM966.86,2671.17l.61-.08c-.1.21-.19.41-.28.62l-.34.07ZM842.63,2313.86l2.29-2.28V2313C844.16,2313.28,843.4,2313.56,842.63,2313.86Z"/><g class="cls-4"><rect class="cls-5" y="1765.26" width="1440" height="2034.74"/><g class="cls-6"><circle class="cls-7" cx="1054.49" cy="2132.84" r="653.25"/><circle class="cls-8" cx="874.49" cy="2132.84" r="653.25"/><circle class="cls-9" cx="513.3" cy="2570.39" r="653.25"/></g><circle class="cls-10" cx="1439.49" cy="2939.56" r="956.65"/><circle class="cls-11" cx="1315.04" cy="3179.52" r="695.97"/><circle class="cls-12" cx="1457.49" cy="2622.83" r="695.97"/><circle class="cls-13" cx="1.92" cy="3064.42" r="695.97"/><circle class="cls-14" cx="695.45" cy="3223.22" r="695.97"/><circle class="cls-15" cx="279.15" cy="3444.33" r="695.97"/><circle class="cls-16" cx="1035.35" cy="3444.33" r="695.97"/><circle class="cls-17" cx="697.89" cy="3179.52" r="695.97"/><circle class="cls-18" cx="1284.78" cy="2520.75" r="695.97"/></g><path class="cls-2" d="M0,2506.33c8.11,2,14,1.31,16.74-2.58,3.46-5-2.15-6.39-11.63-10.6,14,2.35,25.11.22,27.35-6.09,1.6-4.5-1.64-10.2-8.1-15.65,10.1.46,17.61-1.91,19.41-7,1.93-5.44-3.22-12.65-12.57-19a20.14,20.14,0,0,0-2.1-6.76l7,0c0-2.2-4.09-4.26-10.74-5.82-.54-.71-1.12-1.41-1.73-2.12a54.76,54.76,0,0,0,2.1-7.28,49.57,49.57,0,0,0,14-2.75l0,.05a.3.3,0,0,1,0-.08c5.44-2.08,9.21-5.24,10.71-9.47,1.87-5.24,0-11.42-4.76-17.78,3.3-5.68,5.81-14,6.88-23.64l5.16,16.51c3-.95,3.23-10,.89-22.4l1.48.91a10.71,10.71,0,0,0,9.66.89c9.56-4-.63-17.32-.63-17.32a9.78,9.78,0,0,0,5.69.09,5.65,5.65,0,0,0,3.51-7.7c-.77-1.72-1.56-3.3-2.37-4.76,7.44,4.17,14.21,5.25,19.31,2.45,7.33-4,9.72-15.31,7.59-30,12.71,12.36,25.32,18,33.56,13.45,12.25-6.74,10.7-33.64-2.67-62.85l22.65,20.18c3.71-4.17-4.17-18-18.85-34.49l9.73.09c29.12-18.22-7.92-32.93-7.92-32.93a17,17,0,0,0,8.75-5.11,9.87,9.87,0,0,0-1.78-14.63c-1.8-1.26-3.55-2.41-5.27-3.48.25-.12.51-.23.75-.37,13-7.14,17.19-27.07,13.42-53,22.49,21.86,44.8,31.82,59.38,23.8,21.66-11.93,18.91-59.53-4.73-111.19l40.07,35.7c6.56-7.37-7.38-31.81-33.35-61l17.22.17c51.5-32.23-14-58.26-14-58.26a30.1,30.1,0,0,0,15.47-9,17.47,17.47,0,0,0-3.15-25.89c-38.39-27-66.69-27.43-83.12-23.52-.33-.89-.23-.61-.56-1.51l62.53-33.42c-24.89-22.07-51.31-21.66-74.87-12.2-6.15-3.34-13-6.72-20.34-10.09l5.24-2.25a32.86,32.86,0,0,0,19.12-22.2c7.77-32-44.88-30-44.88-30A30.18,30.18,0,0,0,105.9,1780a17.37,17.37,0,0,0-13.15-22.36C37.6,1746.51,11,1764.46.51,1775.33l49.09-62.72c-19-6.1-35.8-4.53-49.6,1.64Zm56.67-186.48h.23l0,0Z"/><g class="cls-19"><circle class="cls-20" cx="466.25" cy="1732.49" r="653.25"/><circle class="cls-20" cx="466.25" cy="1732.49" r="653.25"/><circle class="cls-21" cx="-181.96" cy="2140.22" r="695.97"/></g><path class="cls-2" d="M311.85,2779.59l-.8-20.55c-3.78.15-6.82,10.5-8,25.43l-4.53-4.8C276,2774,286.19,2799,286.19,2799a11.57,11.57,0,0,0-6.61-1.87,6.69,6.69,0,0,0-6.3,7.75c3.29,21.25,13.23,28.43,18.52,30.78l-29-9.4c1.43,35,52.86,28.07,52.86,28.07s-28.46,13.37-23.69,20.57c6.44,9.73,43.08-10.37,45.41-11.66-1.69.95-21.37,12.24-3.23,14.43,15.42,1.86,24.67-19.26,27.57-27.17a94.34,94.34,0,0,0,19-22.1c13.74-21.64,17.59-43.81,8.61-49.51-6.08-3.86-7.48,2.87-12,14.34,2.11-16.71-1-29.83-8.57-32.19-5.41-1.68-12,2.45-18.19,10.38.06-12-3.13-20.82-9.22-22.71C332.22,2745.92,319.82,2759.33,311.85,2779.59Z"/><g class="cls-22"><circle class="cls-23" cx="374.47" cy="2640.16" r="318.96"/><circle class="cls-24" cx="380.89" cy="2934.15" r="494.04"/></g><path class="cls-2" d="M1198.83,1874.52l53.61-2.42c-.44-9.86-27.49-17.62-66.48-20.4L1194,1844a19.19,19.19,0,0,0,5.74-10.84c7.93-50.26-52.06-25.27-52.06-25.27a30,30,0,0,0,4.77-17.27,17.4,17.4,0,0,0-20.2-16.35c-55.49,8.91-74.09,35-80.15,48.86l24.06-75.92c-91.32,4.33-72.38,138.43-72.38,138.43s-35.39-74.05-54.09-61.5c-25.29,17,27.78,112.28,31.19,118.34-2.51-4.4-32.29-55.58-37.72-8.2-4.61,40.28,50.68,64.06,71.37,71.5,13.91,16.74,33.88,34,58,49.14,56.7,35.5,114.62,45.2,129.35,21.66,10-15.94-7.62-19.48-37.62-31.13,43.64,5.23,77.84-3,83.88-22.89,4.29-14.17-6.6-31.38-27.41-47.31,31.37,0,54.29-8.5,59.12-24.42C1287,1927.15,1251.83,1895,1198.83,1874.52Z"/><g class="cls-25"><circle class="cls-26" cx="903.85" cy="1626.07" r="653.25"/><circle class="cls-27" cx="1267.67" cy="2408.77" r="1119.79"/></g><path class="cls-2" d="M1285.87,1506.93c-7-26.27-19.55,5.07-20.59,7.76,1.42-3.7,23.44-61.87,7.76-69.35-11.59-5.52-25.4,39.19-25.4,39.19s-.29-49-26.64-66.34a71.09,71.09,0,0,0-.08-8c-1.1-16.87-7.67-30.18-14.67-29.72-4.74.3-2.87,4.44-.83,12.31-5.37-9.72-12.12-15.52-17.08-13.82-3.54,1.22-5.46,6-5.65,12.61-4.65-6.42-9.77-9.87-13.74-8.51-5.92,2-7.31,14-3.68,27.88l-8.41-10.63c-2,1.55.45,8.24,5.64,16.64l-4.28-.79c-14.23,5.78,1,15.11,1,15.11a7.57,7.57,0,0,0-4.25,1.58,4.44,4.44,0,0,0-.32,6.6c.45.46.9.88,1.34,1.29a10,10,0,0,0-.06,2.51,17.16,17.16,0,0,0,4.13,9.35s-28.78-7.31-28.61,11a18.89,18.89,0,0,0,8.16,15.09l2.5,1.78c-21.76,4.81-36.37,11.43-35.8,17l30.44-3.09c-28.2,16-45.38,37-39.37,49.77,4,8.44,17.25,11.34,34.53,9l.26.52a59.89,59.89,0,0,0-8,10.33c-22.17-2.14-51,1.31-58.2,31.54l45.07-5.53c-8.39,2-25,9.63-35.76,39.75a10,10,0,0,0,7.1,13.11,17.27,17.27,0,0,0,10.11-.88s-16.26,24.83,1.12,30.63a18.91,18.91,0,0,0,16.93-2.81l2.5-1.79c-2.53,22.14-1,38.12,4.46,39.4l7-29.8c5.92,31.86,20.25,54.95,34.27,53.41,9.43-1,16.57-13,19.88-30.58,6.75,13.34,15.25,21.25,23.65,20.32,11.77-1.3,20-19.6,21.62-44.61,3.38,18,3.52,28.27,13.5,24.35,14.73-5.79,15.37-39.27,1.41-74.77-5.66-14.4-12.85-26.89-20.38-36.3q2.31-1.83,4.59-3.76c12.34-10.52,22.17-21.94,28.62-32.54C1262.61,1547.27,1291.82,1529.27,1285.87,1506.93Z"/><g class="cls-28"><circle class="cls-29" cx="863.85" cy="1375.07" r="653.25"/><circle class="cls-30" cx="643.85" cy="1566.07" r="653.25"/></g><path class="cls-2" d="M723.22,2569.25l21.68-21.59c-4-4-18.35,3.11-35.86,16.9l.21-3.07a18.9,18.9,0,0,0-6.51-15.88c-14.06-11.74-26.65,15.14-26.65,15.14a17.16,17.16,0,0,0-4.62-9.11,9.94,9.94,0,0,0-14.82.89c-19.95,25-17.79,43.16-15,51.32l-19-41.25c-36.86,36.86,22.58,86.16,22.58,86.16s-43.34-17.66-46.41-5.2c-4.16,16.87,54.79,36.71,58.55,38-2.74-.89-34.94-11.05-19.05,11,13.5,18.75,46,7.58,57.53,2.78,12.29,1.72,27.35,1.36,43.31-1.52,37.53-6.78,65.68-24.91,62.87-40.49-1.91-10.55-10.69-5.29-27.81,1.3,20.41-14.53,31.68-31.13,26.6-41.83-3.63-7.62-14.83-10.71-29.72-9.44,13.22-12,19.64-24.41,15.57-33C780.61,2557.61,753.43,2557.55,723.22,2569.25Z"/><g class="cls-31"><circle class="cls-32" cx="786.43" cy="2793.01" r="653.26"/><circle class="cls-33" cx="629.99" cy="2394.94" r="318.96"/></g><path class="cls-2" d="M1137.73,1307.54l5.73-12.29c-2.26-1.06-7.16,4.1-12.34,12.51l-1.21-4.18c-11.55-10.12-13.08,7.63-13.08,7.63a7.6,7.6,0,0,0-3.32-3.09,4.41,4.41,0,0,0-6,2.65c-4.47,13.45-.8,20.66,1.59,23.64l-14.2-14.27c-9.7,21,22.56,32.4,22.56,32.4s-20.73-.73-20.1,4.93c.84,7.65,28.4,6.9,30.16,6.84-1.28,0-16.23.74-6.25,7.5,8.49,5.74,20.28-3.87,24.37-7.64a62.07,62.07,0,0,0,17.78-7.25c14.58-8.55,23.52-20.39,20-26.45-2.4-4.1-5.25-.57-11.37,4.79,6.27-9.16,8.42-17.79,4.68-21.46-2.68-2.62-7.81-2.19-13.81.61,3.66-7,4.44-13.16,1.44-16.11C1159.84,1293.93,1148.52,1298.06,1137.73,1307.54Z"/><g class="cls-34"><circle class="cls-35" cx="1050.84" cy="1224.07" r="420.14"/></g><path class="cls-2" d="M1306.37,1020.09,1311,1010c-1.84-.86-5.85,3.36-10.08,10.23l-1-3.41c-9.44-8.28-10.69,6.23-10.69,6.23a6.18,6.18,0,0,0-2.71-2.52,3.61,3.61,0,0,0-4.93,2.16c-3.66,11-.66,16.9,1.3,19.33l-11.61-11.66c-7.93,17.14,18.44,26.48,18.44,26.48s-16.94-.59-16.43,4c.69,6.25,23.22,5.64,24.66,5.59-1,0-13.27.61-5.11,6.13,6.94,4.69,16.58-3.17,19.92-6.25a50.68,50.68,0,0,0,14.54-5.92c11.92-7,19.23-16.68,16.33-21.63-2-3.35-4.3-.46-9.3,3.92,5.13-7.49,6.89-14.55,3.82-17.55-2.18-2.14-6.38-1.79-11.28.5,3-5.75,3.63-10.76,1.17-13.17C1324.44,1009,1315.18,1012.33,1306.37,1020.09Z"/><g class="cls-6"><g class="cls-36"><circle class="cls-37" cx="1303.85" cy="1004.07" r="653.25"/></g></g><path class="cls-2" d="M1440,1164.86a36.54,36.54,0,0,0-11.55,6.23,1.75,1.75,0,0,0-1.35-.56l3.42-7.34c-1.32-.62-3.74,1.36-6.55,5,1.63-4.32,1.67-7.93-.3-9.86-2.19-2.14-6.38-1.79-11.29.5,3-5.75,3.63-10.76,1.18-13.16-3.65-3.58-12.91-.2-21.72,7.55l4.68-10c-1.85-.87-5.86,3.35-10.09,10.22l-1-3.41c-3.76-3.29-6.21-3-7.81-1.4.27-10.08-3.06-20.14-15.15-25.31l-1.39,27.94c-.3-5.3-3.22-16.16-20.36-25.9a6.12,6.12,0,0,0-8.68,2.88,10.53,10.53,0,0,0-.55,6.28s-13.36-12.49-18.72-2.55a11.65,11.65,0,0,0-.08,10.57l.83,1.7c-13.18-3.87-23-4.63-24.39-1.44l17.35,7.37c-20,.24-35.49,6.5-36,15.17-.36,5.84,6.14,11.43,16.46,15.3a33.3,33.3,0,0,0-9.81,4.58c-5.63.23-13.33,7.2-19.47,17.68l1.57-13.47c-2.48-.29-5.51,6.14-7.78,15.75l-2.47-3.58c-14.14-6-10,11.35-10,11.35a7.66,7.66,0,0,0-4.12-1.89,4.41,4.41,0,0,0-4.89,4.41c0,14.18,5.73,19.87,8.94,21.94l-18-9.07c-1.66,14.59,11.55,20.18,21.4,22.33-6.59,3.81-12.25,9.87-16.18,19l45.35,2.27c-8.6.48-26.23,5.21-42,33a10,10,0,0,0,4.68,14.1,17.26,17.26,0,0,0,10.18.89s-20.27,21.68-4.14,30.37a18.93,18.93,0,0,0,17.17.14l2.76-1.34c-6.28,21.38-7.52,37.37-2.34,39.58l12-28.16c.38,32.39,10.55,57.6,24.62,58.48,9.47.59,18.55-10,24.82-26.72,4.37,14.29,11.4,23.54,19.82,24.06a13.31,13.31,0,0,0,6.91-1.53c2,3.85,4.34,8,7,12.35l-9.66-1.79c-32.09,13,2.14,34.1,2.14,34.1a17.23,17.23,0,0,0-9.58,3.55,10,10,0,0,0-.78,14.85c22.6,22.64,40.85,22.55,49.27,20.73l-43.14,14.18c8.82,11.09,19.36,15.21,30,15.34l9.89,20.31c-4.57-7.3-17.21-20.46-49.2-20.9a10,10,0,0,0-10.11,10.9,17.1,17.1,0,0,0,4.13,9.34s-39-9.88-26,22.22l8,5.68c-21.76,4.81-36.37,11.43-35.8,17l30.44-3.09c-28.2,16-45.38,37-39.37,49.77,4,8.58,17.68,11.44,35.38,8.86-10.41,10.72-15.13,21.34-11.53,29a12.77,12.77,0,0,0,.84,1.48,27.71,27.71,0,0,0-5.21-1.33,17.46,17.46,0,0,0-19.94,16.8c-1.92,56.07,20.08,79.32,32.49,87.93l-69.86-38.25c-13.36,90.44,121.88,97.72,121.88,97.72s-79.49,20.45-70.78,41.22c4.78,11.41,24.75,12.62,47.22,9.9,3.68,31.39,17.91,42.58,25.59,46.38l-42.59-15.75c0,52.13,76.89,45,76.89,45s-43.13,18.16-36.49,29.14c9,14.87,64.69-12.79,68.24-14.56-2.58,1.3-32.53,16.89-5.69,21.26,12,1.95,23-5.68,30.32-15Z"/><g class="cls-38"><circle class="cls-39" cx="949.33" cy="1485.06" r="653.25"/><circle class="cls-39" cx="949.33" cy="1485.06" r="653.25"/><circle class="cls-37" cx="1303.85" cy="1004.07" r="653.25"/><circle class="cls-40" cx="1862.67" cy="1759.08" r="1119.79"/></g></g></svg>