<svg id="Layer_4" data-name="Layer 4" xmlns="http://www.w3.org/2000/svg" xmlns:xlink="http://www.w3.org/1999/xlink" viewBox="0 0 1440 3800"><defs><style>.cls-1{fill:#ff987f;}.cls-2{fill:#6d5b9d;}.cls-3,.cls-7{fill:none;}.cls-4{fill:url(#linear-gradient);}.cls-5{fill:#482451;}.cls-6{fill:#ff7177;}.cls-7{stroke:#ff987f;stroke-miterlimit:10;stroke-width:20px;}.cls-8{clip-path:url(#clip-path);}.cls-9{fill:#ffc095;}.cls-10{clip-path:url(#clip-path-2);}.cls-11{fill:#ffca5a;}.cls-12{fill:#ffe2be;}.cls-13{clip-path:url(#clip-path-3);}.cls-14,.cls-15{opacity:0.5;}.cls-14{fill:url(#linear-gradient-2);}.cls-16{fill:url(#radial-gradient);}.cls-17{fill:url(#radial-gradient-2);}.cls-18{fill:url(#radial-gradient-3);}.cls-19{fill:url(#radial-gradient-4);}.cls-20{fill:url(#radial-gradient-5);}.cls-21{clip-path:url(#clip-path-4);}.cls-22{fill:url(#linear-gradient-3);}.cls-23{clip-path:url(#clip-path-5);}.cls-24{fill:url(#radial-gradient-6);}.cls-25{clip-path:url(#clip-path-6);}.cls-26{fill:#633b7d;}.cls-27{fill:url(#radial-gradient-7);}.cls-28{fill:url(#radial-gradient-8);}.cls-29{clip-path:url(#clip-path-7);}</style><linearGradient id="linear-gradient" x1="729.9" y1="1296.53" x2="1413.38" y2="1907.36" gradientUnits="userSpaceOnUse"><stop offset="0" stop-color="#ffe2be"/><stop offset="0.57" stop-color="#ff987f"/></linearGradient><clipPath id="clip-path"><polygon class="cls-1" points="411.58 1502.25 325.58 1266.56 350.36 1276.13 430.36 1495.39 411.58 1502.25"/></clipPath><clipPath id="clip-path-2"><polyline class="cls-1" points="628.38 1243.63 676.21 1243.63 676.21 1236.25 749.06 1236.25 749.06 1244.87 1064.69 1244.87 1205 1326.07 804.83 1301.45 600.51 1301.45 564.81 1311.93 461.36 1301.49 236.18 1295.34 209.08 1289.19 209.08 1263.81 593.09 1263.81"/></clipPath><clipPath id="clip-path-3"><path class="cls-2" d="M1099.11,1394.25s-74.78-84.69-175.45-84.69c-86,0-210.66,10-210.66,10s-194.65-17-258,77c-21.81,32.36-53.95,44.38-78.13,65.91A134.54,134.54,0,0,0,342,1511.56h0c-82,0-122,65-122,65-117,0-.54,156.44-146,156.44l80.37,1061.58,391.81-7.81,676.46-1212.28C1180.24,1420.45,1099.11,1394.25,1099.11,1394.25Z"/></clipPath><linearGradient id="linear-gradient-2" y1="-1089.08" x2="1453" y2="-1089.08" gradientTransform="translate(0 2990.86)" gradientUnits="userSpaceOnUse"><stop offset="0" stop-color="#d65b86" stop-opacity="0.5"/><stop offset="1" stop-color="#482451" stop-opacity="0.3"/></linearGradient><radialGradient id="radial-gradient" cx="1009.79" cy="1201.42" r="319.36" gradientUnits="userSpaceOnUse"><stop offset="0" stop-color="#d65b86"/><stop offset="1" stop-color="#d65b86" stop-opacity="0"/></radialGradient><radialGradient id="radial-gradient-2" cx="1139.79" cy="1332.42" r="319.36" xlink:href="#radial-gradient"/><radialGradient id="radial-gradient-3" cx="548.79" cy="1292.42" r="319.36" gradientUnits="userSpaceOnUse"><stop offset="0" stop-color="#482451"/><stop offset="1" stop-color="#482451" stop-opacity="0"/></radialGradient><radialGradient id="radial-gradient-4" cx="769.79" cy="1262.42" r="319.36" xlink:href="#radial-gradient-3"/><radialGradient id="radial-gradient-5" cx="358.79" cy="1432.42" r="319.36" xlink:href="#radial-gradient-3"/><clipPath id="clip-path-4"><path class="cls-3" d="M-21.56,2768.59c215.12,0,743.82,9.25,880.21,9.25,0,0-113.15-388.16-.63-650.77,129.86-303.1,73.89-552.71,49.3-639.28a20,20,0,0,0-34.49-7.44c-153,181.62-162.28,491.74-265,541.57C493,2077.68,428,2030.09,327.62,2125.62c-69.85,66.46-87.17,56.71-119.17,47.16-67.63-20.19-131.35,11.85-242.31,11.85Z"/></clipPath><linearGradient id="linear-gradient-3" x1="114.1" y1="2108.74" x2="1002.93" y2="2108.74" gradientUnits="userSpaceOnUse"><stop offset="0" stop-color="#005da1" stop-opacity="0.5"/><stop offset="0.75" stop-color="#482451" stop-opacity="0.3"/></linearGradient><clipPath id="clip-path-5"><path class="cls-3" d="M104.7,2799.61c215.13,0,576.26-31.82,712.66-31.82,0,0-71.86-303.83,40.66-500.72,163.61-286.3,349.78-788.9,325.18-875.47-4.37-15.37-69.8-4.12-150.37,18.75-296.09,84-283,636.18-425,751.57-99.12,80.56-179.82,8.17-280.24,103.7-69.85,66.46-87.17,56.71-119.17,47.16-67.63-20.19-19,28-130,28Z"/></clipPath><radialGradient id="radial-gradient-6" cx="1.65" cy="2367.43" r="705.68" gradientUnits="userSpaceOnUse"><stop offset="0" stop-color="#904a85"/><stop offset="1" stop-color="#ff987f" stop-opacity="0"/></radialGradient><clipPath id="clip-path-6"><path class="cls-3" d="M467.45,1737.16c-44.22,0-52-24.23-42.46-39.66a210.81,210.81,0,0,1,46.29-52.7c8.64-7,1.17-20.79-9.4-17.3-95.82,31.63-183.21,136.24-247,136.24-53.75,0,18.9,40.13,5.76,71.32a40.76,40.76,0,0,1-21.3,21.56c-65.65-16.34-48.49-24.83-131.5-24.83,0,0,68.14,203.36,151,203.36s141.32-112.71,252.52-112.71c81.81,0,160.42-18.72,186.68-115.37,66.84-246,113.42-334.18,174.92-381.57,9.58-7.38.34-22.26-10.51-16.91C681.91,1477.91,579.79,1737.16,467.45,1737.16Z"/></clipPath><radialGradient id="radial-gradient-7" cx="81.15" cy="1862.61" r="521.85" gradientUnits="userSpaceOnUse"><stop offset="0" stop-color="#005da1"/><stop offset="1" stop-color="#005da1" stop-opacity="0"/></radialGradient><radialGradient id="radial-gradient-8" cx="700.92" cy="1455.01" r="319.36" xlink:href="#radial-gradient-3"/><clipPath id="clip-path-7"><path id="bridge-top" class="cls-4" d="M1143.09,1767.3C869.92,1741,554.4,1483.65,523.35,1283.56h36.44c51.21,166.87,379.24,383,636.74,383,122.68,0,243.47-20.46,243.47-20.46V1767.3S1247,1777.3,1143.09,1767.3Z"/></clipPath></defs><title>Artboard 2</title><g id="house"><rect class="cls-5" x="470.97" y="1279.56" width="20" height="209.26"/><rect class="cls-5" x="430.97" y="1279.56" width="20" height="209.26"/><rect class="cls-5" x="390.41" y="1277.66" width="20" height="213.05" transform="translate(-252.76 99.79) rotate(-10.82)"/><polygon class="cls-6" points="1440 1458.28 450.97 1314.84 299.36 1310.47 299.36 1285.47 1440 1311.18 1440 1458.28"/><line class="cls-7" x1="492.97" y1="1282.56" x2="492.97" y2="1491.82"/><rect class="cls-1" x="335.97" y="1265.38" width="20" height="227.61" transform="translate(-623.45 338.96) rotate(-28.9)"/><polygon class="cls-1" points="411.58 1502.25 325.58 1266.56 350.36 1276.13 430.36 1495.39 411.58 1502.25"/><g class="cls-8"><rect class="cls-6" x="376.97" y="1262.49" width="20" height="233.4" transform="translate(-449.28 216.18) rotate(-20.04)"/></g><polygon class="cls-1" points="569.07 1372.47 430.97 1372.47 430.97 1279.56 410.97 1279.56 410.97 1372.47 338.36 1372.47 346.66 1387.47 410.97 1387.47 410.97 1488.82 430.97 1488.82 430.97 1387.47 569.07 1387.47 569.07 1372.47"/><polygon class="cls-9" points="1063.31 1196.67 630.6 1196.67 587.21 1227.06 296.53 1227.06 296.53 1266.56 301.53 1266.56 301.53 1232.06 356.53 1232.06 356.53 1266.56 361.53 1266.56 361.53 1232.06 416.53 1232.06 416.53 1266.56 421.53 1266.56 421.53 1232.06 476.53 1232.06 476.53 1266.56 481.53 1266.56 481.53 1232.06 536.53 1232.06 536.53 1266.56 541.53 1266.56 541.53 1232.06 586.53 1232.06 586.53 1266.56 591.53 1266.56 591.53 1230.14 626.53 1205.62 626.53 1246.56 631.53 1246.56 631.53 1202.12 632.18 1201.67 676.17 1201.67 676.17 1246.56 681.53 1246.56 681.53 1201.67 736.53 1201.67 736.53 1246.56 743.29 1246.56 743.29 1201.67 796.53 1201.67 796.53 1246.56 801.53 1246.56 801.53 1201.67 856.53 1201.67 856.53 1246.56 861.53 1246.56 861.53 1201.67 916.53 1201.67 916.53 1246.56 921.53 1246.56 921.53 1201.67 976.53 1201.67 976.53 1246.56 981.53 1246.56 981.53 1201.67 1036.53 1201.67 1036.53 1246.56 1041.53 1246.56 1041.53 1201.67 1063.31 1201.67 1063.31 1196.67"/><polyline class="cls-1" points="628.38 1243.63 676.21 1243.63 676.21 1236.25 749.06 1236.25 749.06 1244.87 1064.69 1244.87 1205 1326.07 804.83 1301.45 600.51 1301.45 564.81 1311.93 461.36 1301.49 236.18 1295.34 209.08 1289.19 209.08 1263.81 593.09 1263.81"/><g class="cls-10"><polygon class="cls-11" points="1150.73 1294.07 804.83 1269.45 620.51 1269.45 564.81 1284.93 386.96 1278.34 328.36 1279.49 236.18 1273.34 209.08 1267.19 209.08 1251.81 593.09 1251.81 628.38 1231.63 676.21 1231.63 676.21 1224.25 739.06 1224.25 739.06 1232.87 1064.69 1232.87 1150.73 1294.07"/><polygon class="cls-11" points="330.36 1279.49 338.36 1301.49 190.74 1301.49 190.74 1236.25 330.36 1279.49"/><polygon class="cls-12" points="620.51 1269.45 649.03 1236.25 676.21 1243.63 676.21 1248.63 742.29 1248.63 742.29 1232.87 1075.09 1232.87 1176.15 1292.84 620.51 1269.45"/><polygon class="cls-6" points="632.84 1255.09 649.03 1236.25 676.21 1243.63 676.21 1246.63 743.29 1246.63 743.29 1232.87 1075.09 1232.87 1143.51 1272.29 632.84 1255.09"/><polygon class="cls-9" points="632.84 1255.09 638.09 1248.98 1143.51 1267.29 1143.51 1275.29 632.84 1255.09"/><polygon class="cls-9" points="238.18 1305.34 238.18 1276.86 330.36 1279.49 411.58 1502.25 238.18 1305.34"/></g><polygon class="cls-1" points="1063.31 1096.29 1063.31 1244.87 1205 1326.07 1440 1348.07 1440 1096.29 1063.31 1096.29"/><polygon class="cls-6" points="523.35 1283.56 559.79 1283.56 559.79 1326.07 513.82 1315.54 523.35 1283.56"/><path class="cls-9" d="M590,1352.85c0-33.83-15.35-101.21-24.09-136.84a3,3,0,0,0-5.91.72v136.12Z"/><path class="cls-9" d="M493,1372.85c0-68.17,15.34-121.21,24.09-156.84a3,3,0,0,1,5.91.72v136.12Z"/><polygon class="cls-6" points="1011.36 1088.63 1011.36 1110.03 1063.31 1131.43 1440 1131.43 1440 1088.91 1011.36 1088.63"/><polygon class="cls-11" points="980.29 1080.96 980.29 1096.29 1011.36 1096.29 1011.36 1110.03 1025.09 1110.03 1025.09 1096.29 1061.36 1096.29 1061.36 1110.03 1075.09 1110.03 1075.09 1096.29 1111.36 1096.29 1111.36 1110.03 1125.09 1110.03 1125.09 1096.29 1161.36 1096.29 1161.36 1110.03 1175.09 1110.03 1175.09 1096.29 1440 1096.29 1440 1080.96 980.29 1080.96"/><rect class="cls-12" x="980.29" y="1066.96" width="459.71" height="15.33"/><polygon class="cls-12" points="1093.31 1209.36 660.55 1209.36 656.74 1212.25 656.53 1212.25 656.53 1212.41 621.5 1239.01 621.5 1267.45 626.5 1267.45 626.5 1241.49 656.53 1218.69 656.53 1259.25 661.53 1259.25 661.53 1214.89 662.23 1214.36 706.53 1214.36 706.53 1259.25 711.53 1259.25 711.53 1214.36 766.53 1214.36 766.53 1269.25 771.53 1269.25 771.53 1214.36 826.53 1214.36 826.53 1269.25 831.53 1269.25 831.53 1214.36 886.53 1214.36 886.53 1269.25 891.53 1269.25 891.53 1214.36 946.53 1214.36 946.53 1279.25 951.53 1279.25 951.53 1214.36 1006.53 1214.36 1006.53 1279.25 1011.53 1279.25 1011.53 1214.36 1066.53 1214.36 1066.53 1279.25 1071.53 1279.25 1071.53 1214.36 1093.31 1214.36 1093.31 1209.36"/><polygon class="cls-11" points="347.96 1403.61 358.75 1406.77 399.03 1479.89 392.21 1483.65 347.96 1403.61"/><polygon class="cls-11" points="378.82 1412.56 389.56 1415.7 410.91 1474.03 402.61 1477.87 378.82 1412.56"/><polygon class="cls-6" points="348.33 1387.66 362 1387.52 384.33 1427.98 402.61 1477.87 399.03 1479.89 348.33 1387.66"/><polygon class="cls-6" points="319.59 1311.05 353.77 1372.45 339.68 1372.45 298.38 1297.38 337.17 1298.21 341.91 1311.75 319.59 1311.05"/><path class="cls-2" d="M1099.11,1394.25s-74.78-84.69-175.45-84.69c-86,0-210.66,10-210.66,10s-194.65-17-258,77c-21.81,32.36-53.95,44.38-78.13,65.91A134.54,134.54,0,0,0,342,1511.56h0c-82,0-122,65-122,65-117,0-.54,156.44-146,156.44l80.37,1061.58,391.81-7.81,676.46-1212.28C1180.24,1420.45,1099.11,1394.25,1099.11,1394.25Z"/><g class="cls-13"><rect class="cls-14" y="3.56" width="1453" height="3796.44"/><g class="cls-15"><circle class="cls-16" cx="1009.79" cy="1201.42" r="319.36"/><circle class="cls-17" cx="1139.79" cy="1332.42" r="319.36"/></g><circle class="cls-18" cx="548.79" cy="1292.42" r="319.36"/><circle class="cls-19" cx="769.79" cy="1262.42" r="319.36"/><circle class="cls-20" cx="358.79" cy="1432.42" r="319.36"/></g><g class="cls-21"><rect class="cls-22" x="114.1" y="1428.26" width="888.83" height="1360.96"/></g><g class="cls-23"><circle class="cls-24" cx="1.65" cy="2367.43" r="705.68"/></g><g class="cls-15"><g class="cls-25"><rect class="cls-26" x="217.35" y="1364.65" width="648.75" height="694.07"/><circle class="cls-27" cx="81.15" cy="1862.61" r="521.85"/><circle class="cls-28" cx="700.92" cy="1455.01" r="319.36"/></g></g><rect class="cls-1" x="284.27" y="1238.81" width="5" height="97.21" transform="translate(-1006.69 1545.58) rotate(-88.73)"/><g id="bridge"><path id="bridge-top-2" data-name="bridge-top" class="cls-4" d="M1143.09,1767.3C869.92,1741,554.4,1483.65,523.35,1283.56h36.44c51.21,166.87,379.24,383,636.74,383,122.68,0,243.47-20.46,243.47-20.46V1767.3S1247,1777.3,1143.09,1767.3Z"/><g class="cls-29"><path id="bridge-shadow" class="cls-1" d="M1093.09,1807.3c-274.44,0-578.69-333.65-609.74-533.74h41.44c35,214.2,374.24,459,631.74,459Z"/></g></g></g></svg>