<svg xmlns="http://www.w3.org/2000/svg" xmlns:xlink="http://www.w3.org/1999/xlink" viewBox="0 0 1440 3800"><defs><style>.cls-1{fill:none;}.cls-2{isolation:isolate;}.cls-3{fill:#d65b86;}.cls-4{clip-path:url(#clip-path);}.cls-5{fill:url(#radial-gradient);}.cls-6{fill:url(#radial-gradient-2);}.cls-7{fill:url(#radial-gradient-3);}.cls-8{fill:url(#radial-gradient-4);}.cls-9{fill:url(#radial-gradient-5);}.cls-10{fill:#904a85;}.cls-11{clip-path:url(#clip-path-2);}.cls-12{fill:url(#radial-gradient-6);}.cls-13{fill:url(#radial-gradient-7);}.cls-14{fill:url(#radial-gradient-8);}.cls-15{fill:url(#radial-gradient-9);}.cls-16{fill:url(#radial-gradient-10);}.cls-17{fill:url(#radial-gradient-11);}.cls-18{fill:url(#radial-gradient-12);}.cls-19{fill:url(#radial-gradient-13);}.cls-20{fill:url(#radial-gradient-14);}.cls-21{mix-blend-mode:overlay;fill:url(#radial-gradient-15);}</style><clipPath id="clip-path"><path class="cls-1" d="M370,815.56c137,0,133,180,313,180,100,0,177-160,394-160,145.64,0,258.74,99,363,137.26v200.09L0,1170.4V1055.7C228.61,1028.08,241.42,815.56,370,815.56Z"/></clipPath><radialGradient id="radial-gradient" cx="1319.79" cy="911.42" r="319.36" gradientUnits="userSpaceOnUse"><stop offset="0" stop-color="#6d5b9d"/><stop offset="1" stop-color="#6d5b9d" stop-opacity="0"/></radialGradient><radialGradient id="radial-gradient-2" cx="769.79" cy="881.42" r="319.36" xlink:href="#radial-gradient"/><radialGradient id="radial-gradient-3" cx="1050.79" cy="741.42" r="319.36" xlink:href="#radial-gradient"/><radialGradient id="radial-gradient-4" cx="579.79" cy="781.42" r="319.36" xlink:href="#radial-gradient"/><radialGradient id="radial-gradient-5" cx="-1.21" cy="891.42" r="492.98" xlink:href="#radial-gradient"/><clipPath id="clip-path-2"><path class="cls-1" d="M971,975.56c-137,0-133,180-313,180-100,0-177-80-394-80-129.16,0-264,51.31-264,51.31v569.3l829.72,50.23,520.75-339.91,9.53-187.9C1108.42,1189.68,1099.58,975.56,971,975.56Z"/></clipPath><radialGradient id="radial-gradient-6" cx="1.61" cy="1129.18" r="319.36" gradientUnits="userSpaceOnUse"><stop offset="0" stop-color="#633b7d"/><stop offset="1" stop-color="#633b7d" stop-opacity="0"/></radialGradient><radialGradient id="radial-gradient-7" cx="272.61" cy="999.18" r="319.36" xlink:href="#radial-gradient-6"/><radialGradient id="radial-gradient-8" cx="583.61" cy="999.18" r="319.36" xlink:href="#radial-gradient-6"/><radialGradient id="radial-gradient-9" cx="764.61" cy="999.18" r="319.36" xlink:href="#radial-gradient-6"/><radialGradient id="radial-gradient-10" cx="1035.61" cy="999.18" r="319.36" xlink:href="#radial-gradient-6"/><radialGradient id="radial-gradient-11" cx="421.36" cy="1800.94" r="641.76" gradientUnits="userSpaceOnUse"><stop offset="0" stop-color="#ff7177"/><stop offset="1" stop-color="#ff7177" stop-opacity="0"/></radialGradient><radialGradient id="radial-gradient-12" cx="171.36" cy="1640.94" r="319.36" xlink:href="#radial-gradient-11"/><radialGradient id="radial-gradient-13" cx="1.01" cy="1771.59" r="802.96" xlink:href="#radial-gradient-11"/><radialGradient id="radial-gradient-14" cx="712.36" cy="760.56" r="238.85" gradientUnits="userSpaceOnUse"><stop offset="0" stop-color="#ffe2be"/><stop offset="1" stop-color="#ffe2be" stop-opacity="0"/></radialGradient><radialGradient id="radial-gradient-15" cx="712.36" cy="760.56" r="417.28" xlink:href="#radial-gradient-14"/></defs><title>Artboard 2</title><g class="cls-2"><g id="Layer_4" data-name="Layer 4"><path class="cls-3" d="M370,815.56c137,0,133,180,313,180,100,0,177-160,394-160,145.64,0,258.74,99,363,137.26v211H0V1055.7C226.88,1027.24,241.42,815.56,370,815.56Z"/><g class="cls-4"><circle class="cls-5" cx="1319.79" cy="911.42" r="319.36"/><circle class="cls-6" cx="769.79" cy="881.42" r="319.36"/><circle class="cls-7" cx="1050.79" cy="741.42" r="319.36"/><circle class="cls-8" cx="579.79" cy="781.42" r="319.36"/><circle class="cls-9" cx="-1.21" cy="891.42" r="492.98"/></g><path class="cls-10" d="M971,975.56c-137,0-133,180-313,180-100,0-177-80-394-80-134.18,0-264,51.31-264,51.31v559.25l540.05,35.16,815.44-336.55,4.51-166.14C1108.42,1189.68,1099.58,975.56,971,975.56Z"/><g class="cls-11"><circle class="cls-12" cx="1.61" cy="1129.18" r="319.36"/><circle class="cls-13" cx="272.61" cy="999.18" r="319.36"/><circle class="cls-14" cx="583.61" cy="999.18" r="319.36"/><circle class="cls-15" cx="764.61" cy="999.18" r="319.36"/><circle class="cls-16" cx="1035.61" cy="999.18" r="319.36"/><circle class="cls-17" cx="421.36" cy="1800.94" r="641.76"/><circle class="cls-18" cx="171.36" cy="1640.94" r="319.36"/><circle class="cls-19" cx="1.01" cy="1771.59" r="802.96"/></g><circle class="cls-20" cx="712.36" cy="760.56" r="238.85"/><circle class="cls-21" cx="712.36" cy="760.56" r="417.28"/><circle class="cls-21" cx="712.36" cy="760.56" r="417.28"/></g></g></svg>