<svg id="Layer_4" data-name="Layer 4" xmlns="http://www.w3.org/2000/svg" xmlns:xlink="http://www.w3.org/1999/xlink" viewBox="0 0 1440 3800"><defs><style>.cls-1{fill:#ff987f;}.cls-2{fill:none;}.cls-3{fill:url(#linear-gradient);}.cls-4{fill:url(#linear-gradient-2);}.cls-5{fill:#ffefde;}.cls-6{clip-path:url(#clip-path);}.cls-7{fill:url(#radial-gradient);}.cls-8{fill:url(#radial-gradient-2);}.cls-9{fill:url(#radial-gradient-3);}.cls-10{opacity:0.5;fill:url(#radial-gradient-4);}.cls-11{fill:url(#radial-gradient-5);}.cls-12{clip-path:url(#clip-path-2);}.cls-13{fill:url(#radial-gradient-6);}.cls-14{fill:url(#radial-gradient-7);}.cls-15{fill:url(#radial-gradient-8);}</style><linearGradient id="linear-gradient" x1="720" y1="1020" x2="720" gradientUnits="userSpaceOnUse"><stop offset="0" stop-color="#ffe2be"/><stop offset="1" stop-color="#ffc095"/></linearGradient><linearGradient id="linear-gradient-2" x1="720" y1="991.8" x2="720" gradientUnits="userSpaceOnUse"><stop offset="0" stop-color="#ffe2be" stop-opacity="0"/><stop offset="0.75" stop-color="#ff7177" stop-opacity="0.3"/></linearGradient><clipPath id="clip-path"><path class="cls-1" d="M1312,714.87c-135,0-166.59-279.31-277-279.31-97,0-127.84,340-384,340-281,0-223.32-150-433-150C99.68,625.56,77.07,695.7,0,741.75V1069.1L1440,1067V677C1388.71,678.7,1383.09,714.87,1312,714.87Z"/></clipPath><radialGradient id="radial-gradient" cx="119.79" cy="781.42" r="319.36" gradientUnits="userSpaceOnUse"><stop offset="0" stop-color="#d65b86"/><stop offset="1" stop-color="#d65b86" stop-opacity="0"/></radialGradient><radialGradient id="radial-gradient-2" cx="749.79" cy="671.42" r="319.36" xlink:href="#radial-gradient"/><radialGradient id="radial-gradient-3" cx="1409.79" cy="831.42" r="319.36" xlink:href="#radial-gradient"/><radialGradient id="radial-gradient-4" cx="-110" cy="1208.96" r="715.69" gradientUnits="userSpaceOnUse"><stop offset="0" stop-color="#ffe2be"/><stop offset="1" stop-color="#ffe2be" stop-opacity="0"/></radialGradient><radialGradient id="radial-gradient-5" cx="1570.63" cy="513.82" r="965.21" xlink:href="#radial-gradient-4"/><clipPath id="clip-path-2"><path class="cls-2" d="M1312,674.87c-135,0-130.59-129.31-227-129.31-121,0-104.71,290-324,290-171,0-171-292-268-292-108.63,0-44.32,249.08-368.15,305.36-41.25,7.17-18.42,87.06-18.42,162.41L310.66,1008,1440,991.56v-393C1409.07,596.91,1383.09,674.87,1312,674.87Z"/></clipPath><radialGradient id="radial-gradient-6" cx="1047.15" cy="447.71" r="319.36" xlink:href="#radial-gradient"/><radialGradient id="radial-gradient-7" cx="1317.15" cy="497.71" r="319.36" xlink:href="#radial-gradient"/><radialGradient id="radial-gradient-8" cx="459.79" cy="601.42" r="319.36" xlink:href="#radial-gradient"/></defs><title>Artboard 2</title><rect id="sky-bg" class="cls-3" width="1440" height="1020"/><polygon id="sky-pink" class="cls-4" points="1440 991.56 0 991.8 0 0 1440 0 1440 991.56"/><path class="cls-5" d="M1329,523.56c-198.87,0-301,106.63-384,106.63-85.87,0-106.53-48.63-214.2-48.63-124.64,0-178.78,76.19-231,76.19-45.81,0-56.76-31.19-114.1-31.19-80.73,0-78.72,63-224.72,63-.1,0-110.37.28-161,.28L-.23,862.31c209.86,0,1009.35-4.47,1440.23-4.47V536.36C1404.68,527.31,1378.86,523.56,1329,523.56Z"/><path class="cls-1" d="M1312,714.87c-135,0-166.59-279.31-277-279.31-97,0-127.84,340-384,340-281,0-223.32-150-433-150C99.68,625.56,77.07,695.7,0,741.75V1069.1L1440,1067V677C1388.71,678.7,1383.09,714.87,1312,714.87Z"/><g class="cls-6"><circle class="cls-7" cx="119.79" cy="781.42" r="319.36"/><circle class="cls-8" cx="749.79" cy="671.42" r="319.36"/><circle class="cls-9" cx="1409.79" cy="831.42" r="319.36"/><circle class="cls-10" cx="-110" cy="1208.96" r="715.69"/></g><rect id="sky-light" class="cls-11" width="1440" height="1020"/><g class="cls-12"><circle class="cls-13" cx="1047.15" cy="447.71" r="319.36"/><circle class="cls-14" cx="1317.15" cy="497.71" r="319.36"/><circle class="cls-15" cx="459.79" cy="601.42" r="319.36"/></g><path class="cls-5" d="M1440,883.43s-11.22-.89-17.33-.89c-66.81,0-79.63,30.18-132.91,30.18-38.55,0-83.75-37.06-155.78-55.71a334.23,334.23,0,0,0-186.83,3.89,315.54,315.54,0,0,0-60.82,24.17c-30.84,14.14-55.49,26.65-77.89,26.65-53.27,0-66.09-30.18-132.9-30.18-77.34,0-110.93,47.28-143.31,47.28-28.42,0-35.22-19.35-70.8-19.35-50.09,0-48.84,39.09-139.43,39.09-.11,0,332.75,158.21,332.75,158.21s688.71,9.35,785.25,9.35Z"/></svg>